<svg xmlns="http://www.w3.org/2000/svg" width="27.189" height="33.534" viewBox="0 0 27.189 33.534">
  <g id="Group_14145" data-name="Group 14145" transform="translate(-1217.125 -1084.299)">
    <g id="_Icons_16_Security" data-name="_Icons / 16 Security" transform="translate(1217.125 1084.299)">
      <path id="_16_Security" data-name="16 Security" d="M20.2,30.472l-5.5,2.8a2.425,2.425,0,0,1-2.205,0l-5.5-2.8A12.469,12.469,0,0,1,0,19.465V8.207A3.478,3.478,0,0,1,2.084,5.074L12.582.221a2.429,2.429,0,0,1,2.024,0L25.1,5.074a3.478,3.478,0,0,1,2.084,3.133V19.465A12.469,12.469,0,0,1,20.2,30.472Z" transform="translate(0 0)" fill="#52b2e5"/>
    </g>
    <g id="_Icons_37_Lighting" data-name="_Icons / 37 Lighting" transform="translate(1222.419 1092.779)">
      <path id="Combined_Shape" data-name="Combined Shape" d="M7.69,16.348a.864.864,0,0,1-.253-.611V14.7a.865.865,0,0,1,1.729,0v1.038a.865.865,0,0,1-1.476.611ZM2.421,14.18a.871.871,0,0,1,0-1.231l.733-.737a.87.87,0,0,1,1.235,1.224l-.737.743a.869.869,0,0,1-1.231,0Zm10.538,0-.737-.733a.866.866,0,0,1,1.224-1.224l.733.726a.867.867,0,1,1-1.221,1.231ZM4.5,8.3a3.8,3.8,0,1,1,3.8,3.8A3.8,3.8,0,0,1,4.5,8.3Zm10.2.865a.865.865,0,0,1,0-1.729h1.038a.865.865,0,0,1,0,1.729Zm-13.835,0a.865.865,0,0,1,0-1.729H1.9a.865.865,0,1,1,0,1.729Zm2.3-4.777-.743-.737A.871.871,0,0,1,3.652,2.421l.737.733A.87.87,0,0,1,3.165,4.389Zm9.058-.01a.867.867,0,0,1,0-1.224l.726-.733A.867.867,0,1,1,14.18,3.642l-.733.737a.865.865,0,0,1-1.224,0ZM7.436,1.9V.864a.865.865,0,0,1,1.729,0V1.9a.865.865,0,1,1-1.729,0Z" transform="translate(0 0)" fill="#fff"/>
    </g>
  </g>
</svg>
