<svg xmlns="http://www.w3.org/2000/svg" width="25.896" height="38" viewBox="0 0 25.896 38">
  <path id="branding" d="M12.948,0a13.059,13.059,0,0,0-2.206.187.556.556,0,0,0,.188,1.1A11.846,11.846,0,0,1,24.784,12.948a11.844,11.844,0,0,1-2.837,7.606,16.034,16.034,0,0,1-1.886,1.8c-1.381,1.18-2.806,2.4-3.23,4.506H16.7a8.012,8.012,0,0,1,.121-.8,21.4,21.4,0,0,1,1.438-4.287A1.843,1.843,0,1,0,14.833,20.4l-.043.118-.049.134a7.9,7.9,0,0,0-3.605-.053l-.029-.081-.043-.118a1.843,1.843,0,1,0-3.423,1.364l.112.261a.556.556,0,1,0,1.024-.435q-.057-.133-.116-.27a.731.731,0,1,1,1.357-.541l.043.118q.1.265.2.545l.671,2.044a22.748,22.748,0,0,1,.706,3.366H10.317a12.734,12.734,0,0,0-.622-2.824.556.556,0,0,0-1.06.339A12.094,12.094,0,0,1,9.2,26.857H9.064c-.43-2.049-1.921-3.389-3.367-4.687a17.531,17.531,0,0,1-1.873-1.854,11.535,11.535,0,0,1-2.71-7.368A11.841,11.841,0,0,1,8.557,1.954.556.556,0,0,0,8.143.921,12.952,12.952,0,0,0,0,12.948a12.633,12.633,0,0,0,2.963,8.073A18.617,18.617,0,0,0,4.953,23c1.369,1.23,2.667,2.4,3.023,4.1a1.537,1.537,0,0,0-.718,1.3v1.141a1.529,1.529,0,0,0,.336.956,1.529,1.529,0,0,0-.336.956V32.59a1.54,1.54,0,0,0,1.1,1.474v.3A3.636,3.636,0,0,0,11.992,38H13.9a3.636,3.636,0,0,0,3.632-3.632v-.3a1.54,1.54,0,0,0,1.1-1.474V31.449a1.529,1.529,0,0,0-.336-.956,1.529,1.529,0,0,0,.336-.956V28.4a1.536,1.536,0,0,0-.72-1.3c.344-1.743,1.519-2.748,2.866-3.9A16.9,16.9,0,0,0,22.8,21.272,12.888,12.888,0,0,0,12.948,0Zm2.019,23.493.645-1.965c0-.011.006-.022.009-.033q.109-.305.215-.593l.043-.118a.731.731,0,1,1,1.357.541A22.329,22.329,0,0,0,15.7,25.955a8.51,8.51,0,0,0-.124.9H14.262a22.746,22.746,0,0,1,.706-3.365Zm-3.453-1.831a6.75,6.75,0,0,1,2.854.045c-.118.343-.237.7-.352,1.081H11.881c-.121-.4-.244-.769-.367-1.126ZM13.7,23.9a23.649,23.649,0,0,0-.562,2.957h-.384a23.545,23.545,0,0,0-.562-2.957Zm2.722,10.468a2.523,2.523,0,0,1-2.52,2.52H11.992a2.523,2.523,0,0,1-2.52-2.52v-.24h6.952Zm1.1-1.778a.426.426,0,0,1-.426.426H8.8a.426.426,0,0,1-.426-.426V31.449a.426.426,0,0,1,.247-.386,1.51,1.51,0,0,0,.178.011h8.3a1.51,1.51,0,0,0,.178-.011.426.426,0,0,1,.247.386Zm0-3.053a.425.425,0,0,1-.247.386,1.57,1.57,0,0,0-.178-.011H8.8a1.574,1.574,0,0,0-.178.011.426.426,0,0,1-.247-.386V28.4A.426.426,0,0,1,8.8,27.97h8.3a.426.426,0,0,1,.426.426v1.141Zm0,0" transform="translate(0)"/>
</svg>
