<svg xmlns="http://www.w3.org/2000/svg" width="13.014" height="15.008" viewBox="0 0 13.014 15.008">
  <path id="delete-icon" d="M9.68,15.008H3.335a1.654,1.654,0,0,1-1.712-1.479l-.6-10.09A.987.987,0,0,1,0,2.5a.987.987,0,0,1,1.027-.938H4.794A1.645,1.645,0,0,1,6.506,0,1.645,1.645,0,0,1,8.219,1.564h3.767a.987.987,0,0,1,1.027.938.987.987,0,0,1-1.027.938l-.6,10.09A1.653,1.653,0,0,1,9.68,15.008ZM8.219,5a.658.658,0,0,0-.685.625v6.254a.688.688,0,0,0,1.37,0V5.628A.658.658,0,0,0,8.219,5ZM4.794,5a.658.658,0,0,0-.684.625v6.254a.658.658,0,0,0,.684.625.658.658,0,0,0,.685-.625V5.628A.658.658,0,0,0,4.794,5Z" fill="#fff"/>
</svg>
