<svg id="_Icons_14_Delivery" data-name="_Icons / 14 Delivery" xmlns="http://www.w3.org/2000/svg" width="32" height="32" viewBox="0 0 32 32">
  <path id="Combined_Shape" data-name="Combined Shape" d="M6.037,19.8a3.721,3.721,0,0,1,1.5-4.306L4.821,2.866a.272.272,0,0,0-.26-.208H1.329A1.329,1.329,0,1,1,1.329,0H4.561A2.94,2.94,0,0,1,7.442,2.307l2.716,12.625a3.723,3.723,0,0,1,2.6,1.733l8.016-1.494a1.33,1.33,0,0,1,.489,2.615l-8.037,1.489a3.723,3.723,0,0,1-3.392,3.047q-.136.01-.27.01A3.722,3.722,0,0,1,6.037,19.8Zm5.9-8.29-.7-3.5a3,3,0,0,1,2.351-3.532l3.5-.7a3,3,0,0,1,3.532,2.35l.7,3.5a3,3,0,0,1-2.35,3.533l-3.5.7a3,3,0,0,1-3.533-2.351Z" transform="translate(4.571 4.571)" fill="#7a797e"/>
</svg>
