<svg id="_Icons_7_Eye" data-name="_Icons / 7 Eye" xmlns="http://www.w3.org/2000/svg" width="28" height="28" viewBox="0 0 28 28">
  <path id="Combined_Shape" data-name="Combined Shape" d="M5,10.137A19.014,19.014,0,0,1,.211,6.261a.814.814,0,0,1,0-1.094A19.027,19.027,0,0,1,5,1.291,10.07,10.07,0,0,1,9.794,0a10.071,10.071,0,0,1,4.792,1.291,19.027,19.027,0,0,1,4.792,3.875.815.815,0,0,1,.016,1.094,19.051,19.051,0,0,1-4.8,3.875,10.09,10.09,0,0,1-4.8,1.292A10.081,10.081,0,0,1,5,10.137ZM6.121,5.714A3.673,3.673,0,1,0,9.794,2.041,3.678,3.678,0,0,0,6.121,5.714Zm1.633,0a2.041,2.041,0,1,1,2.04,2.041A2.04,2.04,0,0,1,7.753,5.714Z" transform="translate(4.002 8.286)" fill="#fff"/>
</svg>
