<svg id="_Icons_21_Handset_6" data-name="_Icons / 21 Handset_6" xmlns="http://www.w3.org/2000/svg" width="20" height="20" viewBox="0 0 20 20">
  <path id="_21_Handset_6" data-name="21 Handset_6" d="M7.143,14.286a7.143,7.143,0,1,1,7.143-7.143A7.151,7.151,0,0,1,7.143,14.286ZM4.613,3.423a.723.723,0,0,0-.509.211l-.048.048a2.185,2.185,0,0,0-.3,2.723,13,13,0,0,0,4.122,4.113,2.2,2.2,0,0,0,2.723-.3l.048-.048a.717.717,0,0,0-.1-1.092L9.164,8.107a.711.711,0,0,0-.917.08l-.06.057a.542.542,0,0,1-.663.089A4.51,4.51,0,0,1,5.946,6.762.541.541,0,0,1,6.036,6.1l.057-.059a.708.708,0,0,0,.08-.917L5.2,3.729a.717.717,0,0,0-.525-.3Z" transform="translate(2.857 2.857)" fill="#7a797e"/>
</svg>
