<svg xmlns="http://www.w3.org/2000/svg" width="96.317" height="86.603" viewBox="0 0 96.317 86.603">
  <g id="mail-sent" transform="translate(0)">
    <path id="Path_18273" data-name="Path 18273" d="M112.067,16.821V2.593A2.579,2.579,0,0,0,109.516,0H42.666a2.58,2.58,0,0,0-2.552,2.593V16.821Zm0,0" transform="translate(-32.289)" fill="#f4b537"/>
    <path id="Path_18274" data-name="Path 18274" d="M48.694,0H42.665a2.58,2.58,0,0,0-2.552,2.593V16.821h6.03V2.593A2.579,2.579,0,0,1,48.694,0Zm0,0" transform="translate(-32.289)" fill="#eaa01c"/>
    <path id="Path_18275" data-name="Path 18275" d="M97.621,16.821,112.067,2.593A2.579,2.579,0,0,0,109.515,0H42.666a2.58,2.58,0,0,0-2.552,2.593L54.559,16.821Zm0,0" transform="translate(-32.289)" fill="#feca57"/>
    <path id="Path_18276" data-name="Path 18276" d="M40.113,2.593l6.03,5.939V2.593A2.579,2.579,0,0,1,48.694,0H42.665A2.58,2.58,0,0,0,40.113,2.593Zm0,0" transform="translate(-32.289 0)" fill="#f4b537"/>
    <path id="Path_18277" data-name="Path 18277" d="M63.758,143.963A18.074,18.074,0,0,1,87.6,126.85V87.957A3.115,3.115,0,0,0,84.5,84.852H3.107A3.115,3.115,0,0,0,0,87.957v54.063a3.115,3.115,0,0,0,3.107,3.106H63.8c-.024-.385-.038-.773-.038-1.164Zm0,0" transform="translate(-0.001 -68.3)" fill="#feca57"/>
    <path id="Path_18278" data-name="Path 18278" d="M6.029,142.021V87.958a3.115,3.115,0,0,1,3.107-3.106H3.107A3.115,3.115,0,0,0,0,87.958v54.063a3.115,3.115,0,0,0,3.107,3.106H9.136A3.115,3.115,0,0,1,6.029,142.021Zm0,0" transform="translate(0 -68.3)" fill="#f4b537"/>
    <path id="Path_18279" data-name="Path 18279" d="M63.758,268.322a18.056,18.056,0,0,1,9.46-15.885l-13.5-13.089-6.6,6.393a13.382,13.382,0,0,1-18.628,0l-6.6-6.393L0,266.379a3.115,3.115,0,0,0,3.107,3.106H63.8c-.024-.385-.038-.773-.038-1.164Zm0,0" transform="translate(0 -192.658)" fill="#f4b537"/>
    <path id="Path_18280" data-name="Path 18280" d="M32.09,243.418l-4.2-4.07L0,266.379a3.115,3.115,0,0,0,3.107,3.106H5.193Zm0,0" transform="translate(0 -192.658)" fill="#eaa01c"/>
    <path id="Path_18281" data-name="Path 18281" d="M84.5,84.852H3.107A3.115,3.115,0,0,0,0,87.957l34.487,33.827a13.383,13.383,0,0,0,18.628,0L87.6,87.957A3.115,3.115,0,0,0,84.5,84.852Zm0,0" transform="translate(0 -68.3)" fill="#fcd486"/>
    <path id="Path_18282" data-name="Path 18282" d="M0,87.957l6.029,5.914V87.957a3.115,3.115,0,0,1,3.107-3.106H3.107A3.115,3.115,0,0,0,0,87.957Zm0,0" transform="translate(0 -68.299)" fill="#feca57"/>
    <g id="Group_13932" data-name="Group 13932" transform="translate(59.981 50.268)">
      <path id="Path_18283" data-name="Path 18283" d="M362.069,312.359A18.167,18.167,0,1,1,343.9,294.191,18.167,18.167,0,0,1,362.069,312.359Zm0,0" transform="translate(-325.734 -294.191)" fill="#1dd1a1"/>
      <path id="Path_18284" data-name="Path 18284" d="M331.765,312.359a18.172,18.172,0,0,1,15.152-17.918,18.167,18.167,0,1,0,0,35.834,18.171,18.171,0,0,1-15.152-17.917Zm0,0" transform="translate(-325.735 -294.191)" fill="#15ba8b"/>
      <path id="Path_18285" data-name="Path 18285" d="M390.136,357.563,381.4,366.3l-4.426-4.426a1.507,1.507,0,1,0-2.132,2.131l5.492,5.492a1.507,1.507,0,0,0,2.132,0l9.8-9.8a1.507,1.507,0,0,0-2.132-2.131Zm0,0" transform="translate(-364.905 -344.846)" fill="#e4eaf8"/>
    </g>
  </g>
</svg>
