<svg xmlns="http://www.w3.org/2000/svg" width="264.427" height="180.885" viewBox="0 0 264.427 180.885">
  <g id="Group_12779" data-name="Group 12779" transform="translate(-155.093 -91.975)">
    <g id="Group_33" data-name="Group 33" transform="translate(155.093 91.975)">
      <g id="Group_28" data-name="Group 28" transform="translate(22.631)" opacity="0.59">
        <g id="Group_27" data-name="Group 27">
          <path id="Path_28" data-name="Path 28" d="M402.349,221.366a75.356,75.356,0,0,0-34.32-67.147,15.958,15.958,0,0,1-7.15-11.634c-.029-.257-.059-.514-.091-.773-3.927-31.467-33.337-53.574-64.664-49.311-29.965,4.077-51.535,19.911-48.35,50.4.015.144.032.352.05.616a14.563,14.563,0,0,1-14.266,15.494q-2.611.061-5.257.336a65.176,65.176,0,0,0-37.08,112.875H377.566C391.732,258.67,401.521,239.864,402.349,221.366Z" transform="translate(-170.058 -91.975)" fill="#fff068"/>
        </g>
      </g>
      <path id="Path_29" data-name="Path 29" d="M206.121,122.441a7.7,7.7,0,1,1-7.7-7.705A7.7,7.7,0,0,1,206.121,122.441Z" transform="translate(-136.845 -80.314)" fill="#c5d9ff" opacity="0.31"/>
      <circle id="Ellipse_1" data-name="Ellipse 1" cx="6.766" cy="6.766" r="6.766" transform="translate(221.321 5.998)" fill="#c5d9ff" opacity="0.31"/>
      <path id="Path_30" data-name="Path 30" d="M333.061,145.578a4.6,4.6,0,1,1-4.6-4.6A4.6,4.6,0,0,1,333.061,145.578Z" transform="translate(-68.635 -66.872)" fill="#c5d9ff" opacity="0.31"/>
      <path id="Path_31" data-name="Path 31" d="M164.3,184.563a4.6,4.6,0,1,1-4.6-4.605A4.6,4.6,0,0,1,164.3,184.563Z" transform="translate(-155.093 -46.9)" fill="#c5d9ff" opacity="0.31"/>
      <g id="Group_32" data-name="Group 32" transform="translate(39.728 26.523)">
        <g id="Group_31" data-name="Group 31">
          <g id="Group_30" data-name="Group 30">
            <g id="Group_29" data-name="Group 29">
              <path id="Path_32" data-name="Path 32" d="M379.473,219.863A64.269,64.269,0,0,0,350.2,162.6a13.608,13.608,0,0,1-6.1-9.922c-.024-.219-.05-.439-.077-.659-3.35-26.836-28.433-45.69-55.15-42.054-25.555,3.477-43.951,16.982-41.235,42.986.014.122.027.3.042.526a12.419,12.419,0,0,1-12.167,13.213q-2.228.052-4.483.287a55.586,55.586,0,0,0-31.626,96.265H358.337C370.417,251.679,378.767,235.641,379.473,219.863Z" transform="translate(-181.363 -109.513)" fill="#ffec8d"/>
            </g>
          </g>
        </g>
      </g>
    </g>
    <g id="Group_47" data-name="Group 47" transform="translate(201.495 147.524)">
      <g id="Group_45" data-name="Group 45">
        <g id="Group_38" data-name="Group 38">
          <g id="Group_34" data-name="Group 34" transform="translate(20.117)">
            <path id="Path_33" data-name="Path 33" d="M352.633,234.792H199.34V132.079a3.111,3.111,0,0,1,3.111-3.111H349.52a3.111,3.111,0,0,1,3.112,3.111Z" transform="translate(-198.944 -128.572)" fill="#ecf1f7"/>
            <path id="Path_34" data-name="Path 34" d="M353.163,235.323H199.078V132.215a3.512,3.512,0,0,1,3.507-3.509H349.655a3.513,3.513,0,0,1,3.509,3.509ZM199.87,234.53h152.5V132.215a2.719,2.719,0,0,0-2.716-2.716H202.585a2.719,2.719,0,0,0-2.715,2.716Z" transform="translate(-199.078 -128.706)" fill="#243762"/>
          </g>
          <g id="Group_35" data-name="Group 35" transform="translate(86.923 99.973)">
            <rect id="Rectangle_7" data-name="Rectangle 7" width="19.68" height="1.574" transform="translate(0.396 0.397)" fill="#ecf1f7"/>
            <path id="Path_35" data-name="Path 35" d="M263.725,197.18H243.253v-2.368h20.472Zm-19.68-.794h18.887v-.78H244.045Z" transform="translate(-243.253 -194.812)" fill="#243762"/>
          </g>
          <g id="Group_36" data-name="Group 36" transform="translate(95.566 3.239)">
            <path id="Path_36" data-name="Path 36" d="M251.622,132.246a1.2,1.2,0,1,1-1.2-1.136A1.168,1.168,0,0,1,251.622,132.246Z" transform="translate(-248.833 -130.714)" fill="#ecf1f7"/>
            <path id="Path_37" data-name="Path 37" d="M250.56,133.912a1.533,1.533,0,1,1,1.594-1.532A1.566,1.566,0,0,1,250.56,133.912Zm0-2.271a.742.742,0,1,0,.8.74A.771.771,0,0,0,250.56,131.64Z" transform="translate(-248.968 -130.848)" fill="#243762"/>
          </g>
          <g id="Group_37" data-name="Group 37" transform="translate(0 117.43)">
            <path id="Path_38" data-name="Path 38" d="M375.685,213.592H189.692c-2.017,0-3.654-1.093-3.654-2.441v-3.846c0-.381.461-.688,1.03-.688h191.4c.569,0,1.03.307,1.03.688v3.74C379.5,212.452,377.792,213.592,375.685,213.592Z" transform="translate(-185.642 -206.221)" fill="#6a6a6a"/>
            <path id="Path_39" data-name="Path 39" d="M375.819,214.122H189.826c-2.271,0-4.05-1.246-4.05-2.837v-3.846c0-.609.626-1.084,1.426-1.084H378.6c.8,0,1.426.475,1.426,1.084v3.74C380.03,212.829,378.18,214.122,375.819,214.122ZM187.2,207.147c-.393,0-.634.189-.634.292v3.846c0,1.109,1.491,2.045,3.258,2.045H375.819c1.853,0,3.418-.985,3.418-2.151v-3.74c0-.1-.241-.292-.634-.292Z" transform="translate(-185.776 -206.355)" fill="#243762"/>
          </g>
        </g>
        <g id="Group_42" data-name="Group 42" transform="translate(26.91 8.419)">
          <g id="Group_41" data-name="Group 41">
            <g id="Group_39" data-name="Group 39">
              <rect id="Rectangle_8" data-name="Rectangle 8" width="139.742" height="89.477" rx="2.252" transform="translate(0.378 0.378)" fill="#fff"/>
              <path id="Path_40" data-name="Path 40" d="M340.285,224.507H207.354a3.79,3.79,0,0,1-3.784-3.785V138.057a3.788,3.788,0,0,1,3.784-3.784H340.285a3.787,3.787,0,0,1,3.784,3.784v82.665A3.789,3.789,0,0,1,340.285,224.507ZM207.354,135.029a3.031,3.031,0,0,0-3.028,3.028v82.665a3.031,3.031,0,0,0,3.028,3.029H340.285a3.032,3.032,0,0,0,3.028-3.029V138.057a3.032,3.032,0,0,0-3.028-3.028Z" transform="translate(-203.57 -134.273)" fill="#243762"/>
            </g>
            <g id="Group_40" data-name="Group 40" transform="translate(0.833 0.892)">
              <path id="Path_42" data-name="Path 42" d="M288.6,137.043a.787.787,0,1,1-.788-.788A.787.787,0,0,1,288.6,137.043Z" transform="translate(-161.647 -134.15)" fill="#fff"/>
              <circle id="Ellipse_2" data-name="Ellipse 2" cx="0.787" cy="0.787" r="0.787" transform="translate(128.528 2.106)" fill="#fff"/>
              <circle id="Ellipse_3" data-name="Ellipse 3" cx="0.787" cy="0.787" r="0.787" transform="translate(131.677 2.106)" fill="#fff"/>
            </g>
          </g>
        </g>
        <rect id="Rectangle_9" data-name="Rectangle 9" width="114.822" height="62.066" transform="translate(39.18 24.653)" fill="#c5d9ff" opacity="0.43"/>
        <g id="Group_43" data-name="Group 43" transform="translate(0.789 105.522)">
          <path id="Path_43" data-name="Path 43" d="M206.545,198.743l-20.113,11.82h0l191.837-.084-18.527-11.686Z" transform="translate(-186.23 -198.347)" fill="#ecf1f7"/>
          <path id="Path_44" data-name="Path 44" d="M186.607,211.094H186.5v-.4l-.2-.339L206.5,198.481h.109l153.311.05,19.784,12.478Zm20.114-11.82L187.957,210.3l189.009-.083L359.7,199.323Z" transform="translate(-186.298 -198.481)" fill="#243762"/>
        </g>
        <g id="Group_44" data-name="Group 44" transform="translate(31.683 105.522)" opacity="0.26">
          <path id="Path_45" data-name="Path 45" d="M221.062,198.743,207.69,206.6h0l127.536-.056-12.317-7.769Z" transform="translate(-206.232 -198.347)" fill="#ecf1f7"/>
          <path id="Path_46" data-name="Path 46" d="M206.726,207.133l14.722-8.652,102.069.033,13.573,8.561Zm14.937-7.859-12.021,7.066,124.708-.054-11.061-6.978Z" transform="translate(-206.726 -198.481)" fill="#243762"/>
        </g>
      </g>
      <g id="Group_46" data-name="Group 46" transform="translate(66.149 42.188)">
        <path id="Path_47" data-name="Path 47" d="M242.6,164.927a1.189,1.189,0,0,1-1.19-1.189,4.758,4.758,0,1,0-9.515,0,1.189,1.189,0,0,1-2.379,0,7.137,7.137,0,1,1,14.273,0A1.189,1.189,0,0,1,242.6,164.927Z" transform="translate(-229.516 -156.602)" fill="#393939"/>
        <path id="Path_48" data-name="Path 48" d="M274.087,164.927a1.189,1.189,0,0,1-1.189-1.189,4.758,4.758,0,1,0-9.515,0,1.189,1.189,0,0,1-2.379,0,7.137,7.137,0,1,1,14.273,0A1.19,1.19,0,0,1,274.087,164.927Z" transform="translate(-213.384 -156.602)" fill="#393939"/>
        <path id="Path_49" data-name="Path 49" d="M256.7,186.032A19.984,19.984,0,0,1,236.827,166.6a1.6,1.6,0,0,1,1.6-1.63h38.144v1.19A19.9,19.9,0,0,1,256.7,186.032Zm-17.454-18.685a17.495,17.495,0,0,0,34.909,0Z" transform="translate(-225.771 -152.316)" fill="#393939"/>
      </g>
      <path id="Path_50" data-name="Path 50" d="M332.25,139.046H225.184a.415.415,0,0,1,0-.83H332.25a.415.415,0,1,1,0,.83Z" transform="translate(-165.799 -123.834)" fill="#243762"/>
    </g>
    <g id="Group_49" data-name="Group 49" transform="translate(339.192 121.055)">
      <g id="Group_48" data-name="Group 48" transform="translate(7.23)">
        <path id="Path_51" data-name="Path 51" d="M281.857,138.252V124.623c0-7.262,5.348-13.169,11.92-13.169h9.633c6.571,0,11.919,5.907,11.919,13.169v13.629c0,7.261-5.348,13.168-11.919,13.168h-9.633C287.2,151.42,281.857,145.513,281.857,138.252Zm11.92-20.593c-3.475,0-6.3,3.124-6.3,6.964v13.629c0,3.838,2.828,6.963,6.3,6.963h9.633c3.474,0,6.3-3.124,6.3-6.963V124.623c0-3.84-2.828-6.964-6.3-6.964Z" transform="translate(-281.479 -111.076)" fill="#243762"/>
        <path id="Path_52" data-name="Path 52" d="M303.537,151.926H293.9c-6.78,0-12.3-6.076-12.3-13.546V124.751c0-7.471,5.517-13.547,12.3-13.547h9.633c6.783,0,12.3,6.076,12.3,13.547V138.38C315.835,145.85,310.32,151.926,303.537,151.926ZM293.9,111.96c-6.364,0-11.54,5.738-11.54,12.791V138.38c0,7.052,5.177,12.79,11.54,12.79h9.633c6.364,0,11.542-5.738,11.542-12.79V124.751c0-7.053-5.178-12.791-11.542-12.791Zm9.633,33.761H293.9c-3.682,0-6.68-3.294-6.68-7.341V124.751c0-4.048,3-7.341,6.68-7.341h9.633c3.684,0,6.68,3.292,6.68,7.341V138.38C310.217,142.427,307.221,145.721,303.537,145.721ZM293.9,118.167c-3.267,0-5.924,2.954-5.924,6.585V138.38c0,3.631,2.657,6.585,5.924,6.585h9.633c3.268,0,5.924-2.954,5.924-6.585V124.751c0-3.631-2.656-6.585-5.924-6.585Z" transform="translate(-281.607 -111.204)" fill="#fff"/>
      </g>
      <rect id="Rectangle_10" data-name="Rectangle 10" width="48.689" height="40.421" rx="3.75" transform="translate(0 22.543)" fill="#3fce85"/>
      <path id="Path_53" data-name="Path 53" d="M310.7,164.105H297.028a.378.378,0,0,1,0-.756H310.7a4.28,4.28,0,0,0,4.277-4.275V131.961a.378.378,0,0,1,.756,0v27.113A5.038,5.038,0,0,1,310.7,164.105Z" transform="translate(-266.67 -100.764)" fill="#243762"/>
      <rect id="Rectangle_11" data-name="Rectangle 11" width="42.029" height="31.298" rx="3.75" transform="translate(3.33 28.072)" fill="#fff" opacity="0.25"/>
      <path id="Path_54" data-name="Path 54" d="M289.165,139.083a5.684,5.684,0,1,1,7.33,5.414v7.353H293.2V144.5A5.666,5.666,0,0,1,289.165,139.083Z" transform="translate(-270.505 -99.833)" fill="#243762"/>
    </g>
    <path id="Path_55" data-name="Path 55" d="M397.711,212.013H177.583a.634.634,0,0,1,0-1.269H397.711a.634.634,0,0,1,0,1.269Z" transform="translate(11.197 60.847)" fill="#243762"/>
    <g id="Group_52" data-name="Group 52" transform="translate(378.616 135.893)">
      <path id="Path_56" data-name="Path 56" d="M321.209,132.408a9.157,9.157,0,1,1-9.157-9.157A9.157,9.157,0,0,1,321.209,132.408Z" transform="translate(-302.895 -119.87)" fill="#da9c9c"/>
      <path id="Path_57" data-name="Path 57" d="M303.253,142.228a.4.4,0,1,1,.561-.561,11.636,11.636,0,1,0,0-16.455.4.4,0,1,1-.561-.561,12.43,12.43,0,1,1,0,17.578Z" transform="translate(-302.771 -121.015)" fill="#243762"/>
      <g id="Group_51" data-name="Group 51" transform="translate(7.816 7.933)">
        <g id="Group_50" data-name="Group 50">
          <path id="Path_58" data-name="Path 58" d="M309.274,135.848a1.231,1.231,0,0,1-.87-.319,1.018,1.018,0,0,1-.342-.774.981.981,0,0,1,.346-.776,1.265,1.265,0,0,1,.865-.3,1.223,1.223,0,0,1,.861.305,1,1,0,0,1,.336.773,1.025,1.025,0,0,1-.331.783A1.225,1.225,0,0,1,309.274,135.848Zm1.042-8.676-.188,4.749a.874.874,0,0,1-.874.841h0a.874.874,0,0,1-.874-.842l-.178-4.749a.876.876,0,0,1,.874-.909h.366A.874.874,0,0,1,310.316,127.171Z" transform="translate(-308.063 -126.261)" fill="#fff"/>
        </g>
      </g>
    </g>
  </g>
</svg>
