<svg xmlns="http://www.w3.org/2000/svg" xmlns:xlink="http://www.w3.org/1999/xlink" width="224.25" height="222.783" viewBox="0 0 224.25 222.783">
  <defs>
    <clipPath id="clip-path">
      <path id="Path_16412" data-name="Path 16412" d="M-15044.9-14629.376c-91.124,35.5-131.313,67.5-140.907,101.851s14.793,47.692,42.012,52.234,155.109,8.291,155.109,8.291l-2.446-112.758,2.446-53.025Z" transform="translate(16689 16114)" fill="#cacac8"/>
    </clipPath>
    <clipPath id="clip-path-2">
      <path id="Path_16413" data-name="Path 16413" d="M-15044.9-14629.244c-91.124,36.882-131.313,70.119-140.907,105.808s14.793,49.545,42.012,54.263,141.948,59.174,141.948,59.174l10.715-167.7,2.446-55.085Z" transform="translate(16714 16057)" fill="#fff"/>
    </clipPath>
  </defs>
  <g id="note-background" transform="translate(-1501.067 -3693.217)">
    <g id="Mask_Group_41" data-name="Mask Group 41" transform="translate(0 2269)" opacity="0.12" clip-path="url(#clip-path)">
      <rect id="Rectangle_2093" data-name="Rectangle 2093" width="272" height="139" transform="translate(1418 1501)" fill="#cacac8"/>
    </g>
    <g id="Mask_Group_42" data-name="Mask Group 42" transform="translate(0 2269)" opacity="0.2" clip-path="url(#clip-path-2)">
      <rect id="Rectangle_2125" data-name="Rectangle 2125" width="272" height="144" transform="translate(1418 1502)" fill="#fff"/>
    </g>
  </g>
</svg>
