<svg xmlns="http://www.w3.org/2000/svg" width="93.337" height="108.5" viewBox="0 0 93.337 108.5">
  <g id="note-image" transform="translate(-1558.17 -1525)">
    <path id="Path_1" data-name="Path 1" d="M489.368,240.755h42.225c1.434,0,2.475-1.114,2.1-2.242l-18.515-54.96a2.152,2.152,0,0,0-2.1-1.3H470.853c-1.434,0-2.475,1.114-2.1,2.242l18.515,54.96A2.151,2.151,0,0,0,489.368,240.755Z" transform="translate(1090.003 1392.245)" fill="#fff" stroke="#cacac8" stroke-width="1"/>
    <g id="feather" transform="translate(1576.206 1525)">
      <path id="Path_16409" data-name="Path 16409" d="M274.556,56.489a8.527,8.527,0,0,1-1.4-.224.544.544,0,0,1-.139-1.007,26.926,26.926,0,0,0,10.72-11.4.546.546,0,0,0-.81-.683,8.93,8.93,0,0,1-1.158.695.546.546,0,0,1-.621-.885c3.605-3.334,6.994-10.058,8.521-13.348a.544.544,0,0,0-.717-.727,7.918,7.918,0,0,1-1.729.542.544.544,0,0,1-.461-.945c4.689-4.036,6.361-10.573,6.923-13.81a.547.547,0,0,0-.858-.537,4.411,4.411,0,0,1-2.186.642.545.545,0,0,1-.443-.894c5.614-6.751,3.322-12.251,2.6-13.612A.547.547,0,0,0,292.239,0c-1.527.2-7.34,1.506-9.606,9.99a.545.545,0,0,1-.986.155,4.412,4.412,0,0,1-.739-2.155.547.547,0,0,0-.934-.39c-2.317,2.328-6.685,7.471-7.27,13.63a.544.544,0,0,1-1.037.169,7.907,7.907,0,0,1-.557-1.725.544.544,0,0,0-1.007-.165c-1.8,3.147-5.332,9.8-5.97,14.667a.546.546,0,0,1-1.081.005,8.935,8.935,0,0,1-.1-1.347.546.546,0,0,0-1.026-.267,26.929,26.929,0,0,0-3.113,15.34.544.544,0,0,1-.9.469,8.551,8.551,0,0,1-.992-1.014.546.546,0,0,0-.936.176c-.545,1.536-1.164,4.705.52,9.166a.545.545,0,0,1-.712.7l-.042-.019a.548.548,0,0,0-.77.64,56.226,56.226,0,0,0,3.053,8.059.562.562,0,0,0,.6.31,56.225,56.225,0,0,0,8.342-2.165.548.548,0,0,0,.077-1l-.039-.024a.545.545,0,0,1,.161-.986c4.614-1.2,6.843-3.54,7.782-4.872A.545.545,0,0,0,274.556,56.489Z" transform="translate(-218.572 0.001)" fill="#ffd400"/>
      <path id="Path_16410" data-name="Path 16410" d="M272.683,44.674s-28.514,43.53-37.448,75.635l2.1-2.97S261.919,63.1,272.683,44.674Z" transform="translate(-202.513 -36.381)" fill="#616265"/>
      <path id="Path_16411" data-name="Path 16411" d="M35.294,358.888c-8.932.188-11.308-1.819-11.926-3.025-.9-1.77.7-3.936.742-3.993.363-.53,1.468-2.144.519-3.291-.521-.632-1.907-2.311-15.117,3.453a5.027,5.027,0,0,1-3.133.355c-.19-.043-.813-.207-.863-.48-.253-1.369,4.216-5.406,8.572-8.341l-1.177-.5a1.56,1.56,0,0,0-1.53.173c-3.139,2.275-8.142,6.364-7.655,9,.124.671.614,1.549,2.244,1.923a6.811,6.811,0,0,0,4.269-.461c8.1-3.533,12.095-4.306,12.935-3.974a3.016,3.016,0,0,1-.54,1.079c-.095.124-2.311,3.083-.894,5.876,1.362,2.683,5.553,4.04,12.467,4.04q.549,0,1.122-.012a.91.91,0,0,0,.891-.928A.892.892,0,0,0,35.294,358.888Z" transform="translate(-3.694 -275.658)" fill="#616265" opacity="0"/>
    </g>
    <line id="Line_1" data-name="Line 1" x1="25.141" transform="matrix(0.998, -0.07, 0.07, 0.998, 1581.923, 1612.883)" fill="none" stroke="#3a3144" stroke-linecap="round" stroke-miterlimit="10" stroke-width="2"/>
    <line id="Line_2" data-name="Line 2" x1="25.141" transform="matrix(0.998, -0.07, 0.07, 0.998, 1578.569, 1602.112)" fill="none" stroke="#3a3144" stroke-linecap="round" stroke-miterlimit="10" stroke-width="2"/>
    <line id="Line_3" data-name="Line 3" x1="25.141" transform="matrix(0.998, -0.07, 0.07, 0.998, 1575.217, 1591.343)" fill="none" stroke="#3a3144" stroke-linecap="round" stroke-miterlimit="10" stroke-width="2"/>
  </g>
</svg>
