<svg id="plus-icon" xmlns="http://www.w3.org/2000/svg" xmlns:xlink="http://www.w3.org/1999/xlink" width="24" height="24" viewBox="0 0 24 24">
  <defs>
    <clipPath id="clip-path">
      <path id="Plus" d="M.266,12.906a.91.91,0,0,0,1.286,0L6.586,7.872l5.034,5.034a.909.909,0,0,0,1.286-1.286L7.872,6.586l5.034-5.034A.909.909,0,0,0,11.62.266L6.586,5.3,1.552.266A.909.909,0,0,0,.266,1.552L5.3,6.586.266,11.62A.91.91,0,0,0,.266,12.906Z" transform="translate(9.314 0) rotate(45)"/>
    </clipPath>
  </defs>
  <g id="Group_6" data-name="Group 6" transform="translate(2.686 2.686)">
    <path id="Plus-2" data-name="Plus" d="M.266,12.906a.91.91,0,0,0,1.286,0L6.586,7.872l5.034,5.034a.909.909,0,0,0,1.286-1.286L7.872,6.586l5.034-5.034A.909.909,0,0,0,11.62.266L6.586,5.3,1.552.266A.909.909,0,0,0,.266,1.552L5.3,6.586.266,11.62A.91.91,0,0,0,.266,12.906Z" transform="translate(9.314 0) rotate(45)"/>
  </g>
</svg>
