<svg xmlns="http://www.w3.org/2000/svg" width="9.6" height="20" viewBox="0 0 9.6 20">
  <g id="soap" transform="translate(-133.116)">
    <g id="Group_15432" data-name="Group 15432" transform="translate(133.116)">
      <g id="Group_15431" data-name="Group 15431">
        <path id="Path_18467" data-name="Path 18467" d="M140.011,3.841h-1.494V3.068h.363a.586.586,0,0,0,.586-.586V.586A.586.586,0,0,0,138.88,0h-1.9a.586.586,0,0,0-.586.586V.949h-1.75a1.531,1.531,0,0,0-1.53,1.53v.361a.586.586,0,0,0,1.172,0V2.478a.358.358,0,0,1,.358-.358h1.75v.363a.586.586,0,0,0,.586.586h.363V3.84h-1.494a.586.586,0,0,0-.586.586v.838H140.6V4.426A.586.586,0,0,0,140.011,3.841Z" transform="translate(-133.116)" fill="#939699"/>
      </g>
    </g>
    <g id="Group_15434" data-name="Group 15434" transform="translate(133.145 6.437)">
      <g id="Group_15433" data-name="Group 15433">
        <path id="Path_18468" data-name="Path 18468" d="M141.479,164.78h-5.652a2.206,2.206,0,0,0-1.96,2.189v10.788a.586.586,0,0,0,.586.586h8.4a.586.586,0,0,0,.586-.586V166.969A2.206,2.206,0,0,0,141.479,164.78Z" transform="translate(-133.868 -164.78)" fill="#939699"/>
      </g>
    </g>
  </g>
</svg>
