<svg id="_Icons_16_Folder_2" data-name="_Icons / 16 Folder_2" xmlns="http://www.w3.org/2000/svg" width="22.857" height="17.143" viewBox="0 0 22.857 17.143">
  <path id="_16_Folder_2" data-name="16 Folder_2" d="M20.476,17.143H2.381A2.384,2.384,0,0,1,0,14.762V2.381A2.384,2.384,0,0,1,2.381,0H6.457A1.423,1.423,0,0,1,7.572.538L8.619,1.843a1.42,1.42,0,0,0,1.114.538H20.476a2.38,2.38,0,0,1,2.381,2.381v10a2.381,2.381,0,0,1-2.381,2.381ZM11.429,5.714a.948.948,0,0,0-.672.277L8.619,8.124a.952.952,0,0,0,.671,1.628h1.185v3.1a.953.953,0,1,0,1.905,0v-3.1h1.185a.952.952,0,0,0,.671-1.628L12.1,5.99A.945.945,0,0,0,11.429,5.714Z" fill="#7a797e"/>
</svg>
