<svg xmlns="http://www.w3.org/2000/svg" width="45.11" height="38.531" viewBox="0 0 45.11 38.531">
  <g id="artwork" transform="translate(-8.381 -23.625)">
    <path id="Path_18300" data-name="Path 18300" d="M74.363,127.518V120.94a.94.94,0,0,0-.94-.94H41.471a.94.94,0,0,0-.94.94v22.554a.94.94,0,0,0,.94.94H57.447v-1.88H42.411v-4.284l9.367-8.515L59.6,137.58a.94.94,0,0,0,1.267.057l5.021-4.185.47.411,1.238-1.41-1.074-.94A.94.94,0,0,0,65.3,131.5l-4.981,4.149L52.469,127.8a.94.94,0,0,0-1.3-.031l-8.762,7.966V121.88H72.483v5.639Zm0,0" transform="translate(-32.15 -96.375)"/>
    <path id="Path_18301" data-name="Path 18301" d="M184.531,155.759A3.759,3.759,0,1,0,188.29,152,3.759,3.759,0,0,0,184.531,155.759Zm5.639,0a1.88,1.88,0,1,1-1.88-1.88A1.88,1.88,0,0,1,190.17,155.759Zm0,0" transform="translate(-159.234 -124.616)"/>
    <path id="Path_18302" data-name="Path 18302" d="M100.879,237.828l2.82-2.82,1.329,1.329-2.82,2.819Zm0,0" transform="translate(-85.409 -197.873)"/>
    <path id="Path_18303" data-name="Path 18303" d="M96.743,182.707a7.274,7.274,0,0,0,6.541,4.041,7.362,7.362,0,0,0,5.169-2.142l.483-.483a4.236,4.236,0,0,0,1.222-3.265,56.848,56.848,0,0,0,16.153-13.845l8.082-10.1a3.04,3.04,0,0,0-4.274-4.272l-10.1,8.084a56.852,56.852,0,0,0-13.845,16.149,4.236,4.236,0,0,0-3.265,1.221l-2.463,2.463a1.888,1.888,0,0,1-1.328.552H97.465a.94.94,0,0,0-.841,1.361Zm24.448-20.515,10.1-8.082a1.16,1.16,0,0,1,1.63,1.63l-8.082,10.1a55.27,55.27,0,0,1-5.242,5.686l-4.089-4.094a55.277,55.277,0,0,1,5.682-5.242Zm-6.954,6.635,3.966,3.966a55.088,55.088,0,0,1-8.475,6.145l-.59-.59c-.07-.083-.127-.173-.2-.251s-.167-.134-.25-.2l-.591-.591a55.068,55.068,0,0,1,6.15-8.476Zm-12.466,13.063,2.463-2.463a2.443,2.443,0,0,1,3.137-.2l.45.449a2.364,2.364,0,0,1-.212,3.112l-.483.483a5.468,5.468,0,0,1-3.842,1.595,5.4,5.4,0,0,1-4.113-1.88,3.782,3.782,0,0,0,2.605-1.1Zm0,0" transform="translate(-81.566 -124.592)"/>
  </g>
</svg>
