<svg xmlns="http://www.w3.org/2000/svg" width="14.716" height="14.607" viewBox="0 0 14.716 14.607">
  <g id="Group_14088" data-name="Group 14088" transform="translate(-15 -15.278)">
    <path id="Path_18311" data-name="Path 18311" d="M15.99,9.185,9.251,8.162A1.073,1.073,0,0,0,8,9.222V22.142a.615.615,0,0,0,.613.613h1.993V19.536a1.07,1.07,0,0,1,1.073-1.073h1.533a1.07,1.07,0,0,1,1.073,1.073v3.219h2.606V10.247a1.077,1.077,0,0,0-.9-1.061Zm-4.617,7.9h-.92a.46.46,0,0,1,0-.92h.92a.46.46,0,0,1,0,.92Zm0-1.839h-.92a.46.46,0,1,1,0-.92h.92a.46.46,0,1,1,0,.92Zm0-1.839h-.92a.46.46,0,1,1,0-.92h.92a.46.46,0,1,1,0,.92Zm0-1.839h-.92a.46.46,0,1,1,0-.92h.92a.46.46,0,1,1,0,.92Zm3.065,5.518h-.92a.46.46,0,0,1,0-.92h.92a.46.46,0,0,1,0,.92Zm0-1.839h-.92a.46.46,0,1,1,0-.92h.92a.46.46,0,0,1,0,.92Zm0-1.839h-.92a.46.46,0,1,1,0-.92h.92a.46.46,0,1,1,0,.92Zm0-1.839h-.92a.46.46,0,1,1,0-.92h.92a.46.46,0,0,1,0,.92Z" transform="translate(7 7.13)" fill="#7a797e"/>
    <path id="Path_18312" data-name="Path 18312" d="M22.7,15.178l-4.366-.914v8.982h4.139a1.075,1.075,0,0,0,1.073-1.073V16.227A1.068,1.068,0,0,0,22.7,15.178Zm-1.453,6.228h-.92a.46.46,0,0,1,0-.92h.92a.46.46,0,0,1,0,.92Zm0-1.839h-.92a.46.46,0,0,1,0-.92h.92a.46.46,0,0,1,0,.92Zm0-1.839h-.92a.46.46,0,1,1,0-.92h.92a.46.46,0,1,1,0,.92Z" transform="translate(6.171 6.639)" fill="#7a797e"/>
  </g>
</svg>
