<svg id="seller" xmlns="http://www.w3.org/2000/svg" width="50" height="50" viewBox="0 0 50 50">
  <path id="Path_16028" data-name="Path 16028" d="M36.29,3.871V0H4.032V3.871L0,13.548v2.581A3.222,3.222,0,0,0,2.419,19.24V50H37.9V48.387H4.032V19.24a3.208,3.208,0,0,0,1.613-1V43.548H32.258V41.935H26.613V37.9H25v4.032H15.323V37.9H13.71v4.032H10.484V37.885a2.4,2.4,0,0,1,1.724-2.318l5.3-1.591,2.649,2.649,2.649-2.649,5.3,1.591a2.406,2.406,0,0,1,1.724,2.319h1.613a4.008,4.008,0,0,0-2.873-3.863l-5.191-1.557V31.016A4.822,4.822,0,0,0,25,27.419V25a4.839,4.839,0,1,0-9.677,0v2.419a4.825,4.825,0,0,0,1.613,3.6v1.448l-5.191,1.557a4.008,4.008,0,0,0-2.873,3.863v4.051H7.258V19.24a3.116,3.116,0,0,0,3.226-1,3.183,3.183,0,0,0,4.839,0,3.183,3.183,0,0,0,4.839,0,3.183,3.183,0,0,0,4.839,0,3.183,3.183,0,0,0,4.839,0,3.116,3.116,0,0,0,3.226,1V31.452h1.613V18.24a3.208,3.208,0,0,0,1.613,1V31.452H37.9V19.24a3.222,3.222,0,0,0,2.419-3.111V13.548ZM16.935,25a3.226,3.226,0,1,1,6.452,0v2.419a3.226,3.226,0,1,1-6.452,0Zm3.226,7.258a4.815,4.815,0,0,0,1.613-.282v.755l-1.613,1.613-1.613-1.613v-.755A4.815,4.815,0,0,0,20.161,32.258ZM4.839,16.129a1.613,1.613,0,1,1-3.226,0V14.516H4.839ZM5.064,12.9H2.016l3.36-8.065H7.752Zm4.614,3.226a1.613,1.613,0,1,1-3.226,0V14.516H9.677ZM9.854,12.9H6.764L9.452,4.839H11.87Zm4.662,3.226a1.613,1.613,0,1,1-3.226,0V14.516h3.226Zm.067-3.226H11.517l2.016-8.065h1.72Zm4.772,3.226a1.613,1.613,0,1,1-3.226,0V14.516h3.226Zm0-3.226H16.2l.672-8.065h2.484Zm4.839,3.226a1.613,1.613,0,1,1-3.226,0V14.516h3.226ZM20.968,12.9V4.839h2.484l.674,8.065ZM5.645,3.226V1.613H34.677V3.226ZM25.07,4.839h1.72L28.806,12.9H25.742Zm3.962,11.29a1.613,1.613,0,1,1-3.226,0V14.516h3.226ZM28.45,4.839h2.421L33.559,12.9H30.446Zm5.421,11.29a1.613,1.613,0,1,1-3.226,0V14.516h3.226Zm-1.3-11.29h2.376l3.36,8.065H35.259Zm6.139,11.29a1.613,1.613,0,1,1-3.226,0V14.516H38.71Zm0,0" fill="#7a797e"/>
  <path id="Path_16029" data-name="Path 16029" d="M56,448h1.613v1.613H56Zm0,0" transform="translate(-50.355 -402.839)" fill="#7a797e"/>
  <path id="Path_16030" data-name="Path 16030" d="M88,448h1.613v1.613H88Zm0,0" transform="translate(-79.129 -402.839)" fill="#7a797e"/>
  <path id="Path_16031" data-name="Path 16031" d="M120,448h1.613v1.613H120Zm0,0" transform="translate(-107.903 -402.839)" fill="#7a797e"/>
  <path id="Subtraction_4" data-name="Subtraction 4" d="M14.6,24H9.4L8.93,21.671a10.03,10.03,0,0,1-1.6-.663L5.353,22.327l-3.68-3.68,1.319-1.978a10.181,10.181,0,0,1-.662-1.6L0,14.6V9.4l2.331-.467a10.1,10.1,0,0,1,.662-1.6L1.673,5.353l3.68-3.68L7.333,2.992a10.247,10.247,0,0,1,1.6-.663L9.4,0h5.2l.468,2.329a10.185,10.185,0,0,1,1.6.663l1.978-1.319,3.68,3.68L21.008,7.331a10.272,10.272,0,0,1,.663,1.6L24,9.4v5.2l-2.329.469a9.977,9.977,0,0,1-.663,1.6l1.319,1.978-3.68,3.68-1.978-1.319a10.338,10.338,0,0,1-1.6.663L14.6,24ZM6.737,8.259h0a6.456,6.456,0,0,0,9,9L14.67,15.758A4.609,4.609,0,0,1,8.242,9.329ZM12,7.384A4.621,4.621,0,0,1,16.615,12a4.569,4.569,0,0,1-.857,2.67l1.505,1.072a6.456,6.456,0,0,0-9-9L9.33,8.24A4.585,4.585,0,0,1,12,7.384Z" transform="translate(26 26)" fill="#ffd400"/>
</svg>
