<svg id="_Icons_2_Schedule" data-name="_Icons / 2 Schedule" xmlns="http://www.w3.org/2000/svg" width="25" height="25" viewBox="0 0 25 25">
  <path id="_2_Schedule" data-name="2 Schedule" d="M11.369,17.857h-.01a1.013,1.013,0,0,1-.449-.105l-2.792-1.4-2.792,1.4a1.014,1.014,0,0,1-.449.105H4.87a1.014,1.014,0,0,1-.455-1.9L7.1,14.611V13.393H2.029A2.032,2.032,0,0,1,0,11.363V3.246A2.031,2.031,0,0,1,2.029,1.217H7.1v-.2a1.015,1.015,0,1,1,2.03,0v.2H14.2a2.031,2.031,0,0,1,2.029,2.029v8.117a2.032,2.032,0,0,1-2.029,2.03H9.132v1.217l2.686,1.323a1.015,1.015,0,0,1-.45,1.924ZM11.363,6.494a.813.813,0,0,0-.812.812V9.334a.812.812,0,0,0,1.624,0V7.305A.813.813,0,0,0,11.363,6.494ZM8.117,4.465a.813.813,0,0,0-.812.812V9.334a.812.812,0,0,0,1.623,0V5.276A.813.813,0,0,0,8.117,4.465ZM4.87,7.711a.813.813,0,0,0-.812.812v.812a.812.812,0,1,0,1.623,0V8.523A.813.813,0,0,0,4.87,7.711Z" transform="translate(4.383 3.571)" fill="#7a797e"/>
</svg>
