<svg xmlns="http://www.w3.org/2000/svg" width="13.572" height="17.143" viewBox="0 0 13.572 17.143">
  <path id="delete-red" d="M10.1,17.143H3.478a1.787,1.787,0,0,1-1.786-1.689L1.072,3.929a1.072,1.072,0,1,1,0-2.143H5a1.786,1.786,0,1,1,3.572,0H12.5a1.072,1.072,0,0,1,0,2.143l-.622,11.524A1.785,1.785,0,0,1,10.1,17.143ZM8.571,5.714a.715.715,0,0,0-.714.714v7.143a.714.714,0,0,0,1.429,0V6.428A.715.715,0,0,0,8.571,5.714ZM5,5.714a.715.715,0,0,0-.714.714v7.143a.714.714,0,1,0,1.428,0V6.428A.715.715,0,0,0,5,5.714Z" fill="#b30203"/>
</svg>
