<svg id="_Icons_16_Folder_2" data-name="_Icons / 16 Folder_2" xmlns="http://www.w3.org/2000/svg" width="32" height="32" viewBox="0 0 32 32">
  <path id="_16_Folder_2" data-name="16 Folder_2" d="M20.476,17.143H2.381A2.384,2.384,0,0,1,0,14.762V2.381A2.384,2.384,0,0,1,2.381,0H6.457A1.422,1.422,0,0,1,7.571.538L8.619,1.843a1.422,1.422,0,0,0,1.114.538H20.476a2.381,2.381,0,0,1,2.381,2.381v10a2.381,2.381,0,0,1-2.381,2.381ZM9.29,9.766A.953.953,0,0,0,8.619,11.4l2.137,2.133a.953.953,0,0,0,1.343,0L14.239,11.4a.953.953,0,0,0-.672-1.629H12.381v-3.1a.952.952,0,0,0-1.9,0v3.1Z" transform="translate(4.571 7.429)" fill="#7a797e"/>
</svg>
