<svg xmlns="http://www.w3.org/2000/svg" width="11.027" height="14.703" viewBox="0 0 11.027 14.703">
  <path id="edit-icon" d="M.766,14.7a.766.766,0,1,1,0-1.531h9.5a.766.766,0,1,1,0,1.531ZM.181,10.847a.609.609,0,0,1-.15-.616l1.121-3.58a1.521,1.521,0,0,1,.38-.613L7.112.448a1.531,1.531,0,0,1,2.165,0l1.3,1.3a1.536,1.536,0,0,1,0,2.163L4.987,9.5a1.542,1.542,0,0,1-.613.377L.8,11a.619.619,0,0,1-.182.028A.607.607,0,0,1,.181,10.847Zm7.59-9.315L2.564,6.74a.613.613,0,0,0,.858.864L8.629,2.4l.009,0a.614.614,0,0,0-.275-1.026A.632.632,0,0,0,8.2,1.353.612.612,0,0,0,7.771,1.532Z" fill="#fff"/>
</svg>
