<svg xmlns="http://www.w3.org/2000/svg" width="162.33" height="145.959" viewBox="0 0 162.33 145.959">
  <g id="Group_15045" data-name="Group 15045" transform="translate(-879 -177.731)">
    <g id="sent" transform="translate(879 177.731)">
      <path id="Path_18273" data-name="Path 18273" d="M161.382,28.35V4.37a4.347,4.347,0,0,0-4.3-4.37H44.415a4.348,4.348,0,0,0-4.3,4.37V28.35Zm0,0" transform="translate(-26.926)" fill="#f4b537"/>
      <path id="Path_18274" data-name="Path 18274" d="M54.575,0H44.414a4.348,4.348,0,0,0-4.3,4.37V28.35H50.276V4.37A4.347,4.347,0,0,1,54.575,0Zm0,0" transform="translate(-26.926)" fill="#eaa01c"/>
      <path id="Path_18275" data-name="Path 18275" d="M137.036,28.35,161.382,4.37a4.347,4.347,0,0,0-4.3-4.37H44.415a4.348,4.348,0,0,0-4.3,4.37L64.459,28.35Zm0,0" transform="translate(-26.926)" fill="#feca57"/>
      <path id="Path_18276" data-name="Path 18276" d="M40.113,4.37,50.276,14.38V4.37A4.347,4.347,0,0,1,54.575,0H44.414A4.348,4.348,0,0,0,40.113,4.37Zm0,0" transform="translate(-26.926 0)" fill="#f4b537"/>
      <path id="Path_18277" data-name="Path 18277" d="M107.456,184.478a30.462,30.462,0,0,1,40.189-28.842V90.086a5.251,5.251,0,0,0-5.236-5.235H5.236A5.25,5.25,0,0,0,0,90.086V181.2a5.25,5.25,0,0,0,5.236,5.235H107.521c-.041-.649-.064-1.3-.064-1.961Zm0,0" transform="translate(-0.001 -56.955)" fill="#feca57"/>
      <path id="Path_18278" data-name="Path 18278" d="M10.161,181.2V90.087A5.251,5.251,0,0,1,15.4,84.852H5.236A5.25,5.25,0,0,0,0,90.087V181.2a5.25,5.25,0,0,0,5.236,5.235H15.4A5.251,5.251,0,0,1,10.161,181.2Zm0,0" transform="translate(0 -56.955)" fill="#f4b537"/>
      <path id="Path_18279" data-name="Path 18279" d="M107.456,288.18A30.431,30.431,0,0,1,123.4,261.407l-22.761-22.06L89.52,250.123a22.553,22.553,0,0,1-31.4,0L47.006,239.348,0,284.906a5.25,5.25,0,0,0,5.236,5.235H107.52c-.041-.649-.064-1.3-.064-1.961Zm0,0" transform="translate(0 -160.658)" fill="#f4b537"/>
      <path id="Path_18280" data-name="Path 18280" d="M54.084,246.207l-7.077-6.859L0,284.906a5.25,5.25,0,0,0,5.236,5.235H8.752Zm0,0" transform="translate(0 -160.658)" fill="#eaa01c"/>
      <path id="Path_18281" data-name="Path 18281" d="M142.41,84.852H5.236A5.25,5.25,0,0,0,0,90.086L58.124,147.1a22.556,22.556,0,0,0,31.4,0l58.125-57.012a5.251,5.251,0,0,0-5.236-5.235Zm0,0" transform="translate(0 -56.955)" fill="#fcd486"/>
      <path id="Path_18282" data-name="Path 18282" d="M0,90.086l10.161,9.967V90.086A5.251,5.251,0,0,1,15.4,84.851H5.236A5.25,5.25,0,0,0,0,90.086Zm0,0" transform="translate(0 -56.955)" fill="#feca57"/>
      <g id="Group_13932" data-name="Group 13932" transform="translate(-6 -12)">
        <path id="Path_18283" data-name="Path 18283" d="M386.973,324.81a30.619,30.619,0,1,1-30.619-30.619A30.618,30.618,0,0,1,386.973,324.81Zm0,0" transform="translate(-218.643 -197.47)" fill="#1dd1a1"/>
        <path id="Path_18284" data-name="Path 18284" d="M335.9,324.81a30.626,30.626,0,0,1,25.537-30.2,30.619,30.619,0,1,0,0,60.395,30.626,30.626,0,0,1-25.537-30.2Zm0,0" transform="translate(-218.644 -197.47)" fill="#15ba8b"/>
        <path id="Path_18285" data-name="Path 18285" d="M400.922,357.865l-14.728,14.728-7.459-7.459a2.54,2.54,0,1,0-3.593,3.592l9.256,9.256a2.539,2.539,0,0,0,3.593,0l16.524-16.524a2.54,2.54,0,0,0-3.593-3.592Zm0,0" transform="translate(-251.308 -239.711)" fill="#e4eaf8"/>
      </g>
    </g>
  </g>
</svg>
