<svg xmlns="http://www.w3.org/2000/svg" width="256.807" height="231.41" viewBox="0 0 256.807 231.41">
  <g id="Group_13935" data-name="Group 13935" transform="translate(-1118.454 -273.463)">
    <g id="Group_67" data-name="Group 67" transform="translate(1032 181)">
      <g id="_line" data-name="
line" transform="translate(86.454 92.463)">
        <g id="Group_1" data-name="Group 1">
          <path id="Path_1" data-name="Path 1" d="M86.84,222.017l-.386-.579c1.251-.834,2.612-1.673,4.164-2.564l.346.6C89.427,220.362,88.077,221.192,86.84,222.017Zm98.675-4.209-.7,0q.014-2.433.03-4.869l.7.006Q185.528,215.375,185.515,217.808Zm-90.3-.675-.329-.613,1.057-.565c1.075-.575,2.152-1.151,3.227-1.742l.335.61c-1.077.591-2.155,1.169-3.234,1.745Zm8.519-4.752-.363-.593c1.471-.9,2.788-1.78,4.026-2.683l.41.563C106.558,210.582,105.226,211.469,103.739,212.381Zm81.844-4.311-.7-.006.041-4.869.7.006Zm-73.8-1.148-.349-.6c1.381-.8,2.834-1.538,4.325-2.285l.312.622C114.587,205.4,113.145,206.132,111.782,206.923Zm8.631-4.5-.336-.609a29.2,29.2,0,0,0,4.04-2.605l.431.546A29.89,29.89,0,0,1,120.413,202.422Zm65.255-4.088-.7-.007.047-4.869.7.007ZM127.906,196.1l-.593-.364a9.933,9.933,0,0,0,1.438-4.426l.693.061A10.611,10.611,0,0,1,127.906,196.1Zm57.856-7.506-.7-.007.047-4.869.7.007Zm-55.956-2.087-.694-.041c.091-1.564.162-3.152.216-4.854l.695.022C129.969,183.344,129.9,184.938,129.806,186.509Zm56.049-7.65-.7-.006.042-4.869.7.006Zm-55.735-2.1-.7-.007q.016-1.556.015-3.108,0-.877,0-1.755l.7,0q0,.88,0,1.758Q130.135,175.2,130.121,176.76Zm55.816-7.638-.7,0,.033-4.869.7,0Zm-56.543-2.1-.063-4.868.7-.009.063,4.869Zm56.6-7.641-.7,0q.01-2.435.017-4.869l.7,0Q186,156.947,185.995,159.383Zm-56.714-2.1q-.008-1.355-.009-2.713,0-1.079.006-2.161l.7,0q-.006,1.079-.006,2.156,0,1.356.009,2.708Zm56.739-7.641h-.7v-1.171q0-1.849,0-3.7h.7q0,1.849,0,3.7Zm-55.969-2.089-.7-.018q.05-1.9.136-3.807c.054-.389.111-.744.176-1.1l.684.124q-.094.521-.169,1.041C130.128,145.032,130.083,146.3,130.05,147.556Zm55.256-7.647q-.011-2.435-.029-4.867l.7-.006q.018,2.433.029,4.869Zm-53.68-1.78-.651-.245a25.048,25.048,0,0,1,2.168-4.427l.59.367A24.43,24.43,0,0,0,131.626,138.129Zm53.608-7.954q-.026-2.436-.061-4.867l.7-.01q.034,2.433.061,4.87Zm-48.57-.061-.417-.556c1.337-1,2.658-1.973,3.93-2.888l.406.565C139.316,128.146,138,129.115,136.664,130.113Zm7.9-5.676-.394-.575c1.367-.937,2.732-1.848,4.058-2.707l.378.584C147.282,122.6,145.922,123.5,144.56,124.438Zm40.535-4q-.04-2.225-.088-4.445c-.014-.1-.034-.233-.058-.365l.686-.12c.024.143.047.288.065.434.035,1.516.064,3,.09,4.483Zm-32.377-1.285-.361-.595c1.409-.856,2.826-1.685,4.211-2.466l.342.606C155.531,117.478,154.121,118.3,152.718,119.156Zm8.462-4.764-.32-.617c1.451-.752,2.923-1.479,4.376-2.162l.3.629C164.088,112.921,162.624,113.645,161.18,114.392Zm21.736-2.9a9.4,9.4,0,0,0-3.861-2.585l.232-.655a10.094,10.094,0,0,1,4.147,2.777Zm-12.952-1.226-.27-.641c1.033-.436,2.081-.861,3.116-1.263a8.121,8.121,0,0,1,1.495-.475l.147.68a7.556,7.556,0,0,0-1.379.439C172.034,109.408,170.992,109.83,169.964,110.264Z" transform="translate(-86.454 -107.885)" fill="#fff"/>
        </g>
        <g id="Group_2" data-name="Group 2" transform="translate(98.365 113.885)">
          <path id="Path_2" data-name="Path 2" d="M227.878,276.145v-4.522h.7v3.336l.3-.169.34.607Z" transform="translate(-227.878 -271.623)" fill="#78a1de"/>
        </g>
        <g id="Group_4" data-name="Group 4" transform="translate(61.008 42.274)">
          <g id="Group_3" data-name="Group 3">
            <path id="Path_3" data-name="Path 3" d="M235.184,342.3a23.626,23.626,0,0,1-2.46-.128l.074-.708a23.252,23.252,0,0,0,4.9-.014l.077.708A23.836,23.836,0,0,1,235.184,342.3Zm-7.4-1.176a23.94,23.94,0,0,1-4.612-2.07l.36-.616A23.131,23.131,0,0,0,228,340.445Zm14.936-.043-.225-.677a23.182,23.182,0,0,0,4.266-1.918l.2-.116.355.618-.2.115A23.951,23.951,0,0,1,242.716,341.08Zm-23.849-4.556-4.3-2.528.361-.614,4.3,2.528Zm32.766-.031-.356-.617,4.321-2.494.356.617Zm8.64-4.988-.356-.617,4.321-2.494.356.617Zm-50.007-.036-4.3-2.528.361-.614,4.3,2.528Zm58.648-4.952-.356-.617,4.319-2.494.357.617Zm-67.249-.1-4.3-2.528.362-.614,4.3,2.528Zm75.889-4.885-.356-.617,4.32-2.494.357.617Zm-84.489-.172-4.3-2.528.361-.614,4.3,2.528Zm168.886-2.9-4.353-2.436.348-.622,4.353,2.436Zm-75.757-1.917-.356-.617,4.32-2.494.357.617Zm-101.73-.239-4.3-2.528.361-.614,4.3,2.528Zm168.781-2.715-4.353-2.436.348-.622,4.354,2.436Zm-58.411-2.034-.356-.617,4.32-2.494.357.617Zm-118.773-.772a8.337,8.337,0,0,1-1.893-4.764l.712-.05a7.613,7.613,0,0,0,1.73,4.359Zm168.477-2.066-4.353-2.436.348-.622,4.353,2.436Zm-41.064-2.151-.356-.617,4.32-2.494.357.617Zm32.358-2.722-1.093-.611a26.121,26.121,0,0,0-3.332-1.567l.257-.666a26.945,26.945,0,0,1,3.423,1.611l1.093.611Zm-23.645-2.021-.268-.66a26.714,26.714,0,0,1,4.837-1.448l.139.7A25.987,25.987,0,0,0,312.187,301.821ZM175.973,301.4l-.609-.369a8.312,8.312,0,0,1,3-2.913l.817-.472.356.617-.817.472A7.623,7.623,0,0,0,175.973,301.4Zm150.7-1.07a26.07,26.07,0,0,0-4.682-.424h-.214l-.007-.712h.217a26.922,26.922,0,0,1,4.813.434ZM183.853,295.77l-.356-.617,4.32-2.494.356.617Zm8.64-4.988-.356-.617,4.32-2.495.357.617Zm8.641-4.989-.357-.617,4.32-2.494.356.617Zm8.639-4.988-.356-.617,4.32-2.495.356.617Zm8.64-4.989-.356-.617,4.32-2.494.356.617Zm8.64-4.988-.356-.617,4.321-2.494.356.617Zm8.641-4.989-.356-.617,4.32-2.494.356.617Zm8.64-4.988-.356-.617,4.32-2.494.356.617Zm8.64-4.988-.356-.617,4.32-2.495.356.617Zm8.64-4.989-.356-.617,4.32-2.494.356.617Zm8.64-4.988-.356-.617,4.32-2.494.356.617Zm8.64-4.989-.356-.617,4.32-2.494.356.617Zm-56.5-2.168-.348-.622,4.353-2.436.348.622Zm65.138-2.82-.356-.617L291.5,232.8l.356.617ZM231.1,233.856l-.348-.623,4.353-2.436.348.622Zm65.071-2.937-.356-.617,4.321-2.495.356.617Zm-56.364-1.934-.348-.623,4.353-2.435.348.622Zm65-3.055-.356-.617,4.32-2.494.357.617Zm-56.3-1.816-.348-.622,4.353-2.436.348.622Zm64.937-3.172-.356-.617,4.32-2.495.357.617Zm-56.231-1.7-.348-.622,4.353-2.436.348.622Zm64.871-3.29-.356-.617,4.32-2.494.357.617Zm-56.164-1.582-.348-.622,4.353-2.436.348.622Zm64.8-3.407-.356-.618,4.319-2.494.357.618Zm-56.1-1.465-.348-.622,4.353-2.436.348.622Zm64.738-3.524-.356-.617,4.319-2.494.357.617Zm-56.031-1.347-.348-.622,4.353-2.436.348.623Zm64.671-3.642-.356-.618,4.319-2.494.357.618Zm-55.964-1.23-.348-.623,4.353-2.436.348.623Zm64.6-3.759-.356-.618,2.313-1.335a12.774,12.774,0,0,0,1.843-1.292l.46.545a13.409,13.409,0,0,1-1.947,1.364Zm-55.9-1.113-.348-.622,4.353-2.436.348.622Zm8.707-4.871-.348-.622,4.353-2.436.348.623Zm54.619-.708-.634-.323a12.366,12.366,0,0,0,1.3-4.639l.709.056A13.042,13.042,0,0,1,364.079,189.306Zm-45.912-4.163-.348-.623,4.353-2.435.348.622Zm8.707-4.871-.348-.622,4.353-2.436.348.622Zm37.325-.715a12.078,12.078,0,0,0-2.334-4.21l.542-.463a12.794,12.794,0,0,1,2.472,4.456ZM335.58,175.4l-.348-.622,4.353-2.436.348.622Zm22.491-3.058-2.3-1.328a12.419,12.419,0,0,0-2.057-.949l.238-.671a13.1,13.1,0,0,1,2.176,1l2.3,1.327Zm-13.793-1.779-.307-.643a13,13,0,0,1,4.939-1.255l.038.712A12.287,12.287,0,0,0,344.278,170.563Z" transform="translate(-174.168 -168.665)" fill="#fff"/>
          </g>
        </g>
        <g id="Group_5" data-name="Group 5" transform="translate(253.038 193.826)">
          <rect id="Rectangle_1" data-name="Rectangle 1" width="0.696" height="3.93" transform="translate(0 0.607) rotate(-60.772)" fill="#78a1de"/>
        </g>
      </g>
      <g id="key" transform="translate(247.416 274.359)">
        <path id="Path_126" data-name="Path 126" d="M389.677,386.551c.738-7.222-7.919-12.089-17.575-12.089s-18.592,5.166-17.375,12.089v.006a7.056,7.056,0,0,0,0,2.507,7.265,7.265,0,0,0,.5,1.608l-22.071,12.815-3.252,1.885-9.206,5.346v2.513l7.87,4.538,2.91-1.685,7.648,4.374,2.859-1.651,1.23-.71v-2.514l-3.24-1.9.414-.236,1.544.819,1.456-.837,1.227-.708V411.5l4.791,2.772,1.662-.99,1.122-.707v-2.513l-5-3.034,16.6-9.584a26.851,26.851,0,0,0,8.411,1.278c9.645,0,16.926-4.349,17.474-9.655a8.1,8.1,0,0,0-.067-2.151C389.63,386.792,389.664,386.673,389.677,386.551Zm-17.545-6.295c4.9,0,9.36,2.124,10.283,5.417-.866,2.807-4.944,5.006-10.224,5.006-5.413,0-9.363-2.33-10.26-5.211C362.889,382.385,367.363,380.256,372.132,380.256Z" transform="translate(-318.735 -370.947)" fill="#abaaaf" opacity="0.2"/>
        <g id="Group_63" data-name="Group 63">
          <path id="Path_127" data-name="Path 127" d="M369.285,373.021c-9.646,0-18.592,5.166-17.376,12.089a8.134,8.134,0,0,0,1.595,3.484l-23.169,13.452-3.252,1.885-9.206,5.347,7.869,4.538,2.91-1.685,7.648,4.373,2.859-1.65,1.23-.711-5.415-3.175,2.589-1.473,1.544.819,1.456-.837,1.227-.709-2.8-1.64,1.086-.575,6.5,3.761,1.662-.99,1.123-.707-7.124-4.321,18.726-10.81a26.856,26.856,0,0,0,8.411,1.278c9.645,0,16.926-4.348,17.475-9.655C387.6,377.888,378.94,373.021,369.285,373.021Zm10.473,10.473c-.319,3.151-4.648,5.745-10.383,5.745s-9.845-2.624-10.393-5.745c-.728-4.12,4.6-7.192,10.333-7.192S380.2,379.2,379.758,383.494Z" transform="translate(-317.878 -370.508)" fill="#b67b47"/>
          <path id="Path_128" data-name="Path 128" d="M369.285,369.408c-9.646,0-18.592,5.166-17.376,12.088a8.127,8.127,0,0,0,1.595,3.484l-23.169,13.452-3.252,1.886-9.206,5.346,7.869,4.538,2.91-1.684,7.648,4.373,2.859-1.651,1.23-.71-5.415-3.175,2.589-1.473,1.544.819,1.456-.838,1.227-.708-2.8-1.64,1.086-.575,6.5,3.761,1.662-.991,1.123-.706-7.124-4.322,18.726-10.809a26.854,26.854,0,0,0,8.411,1.278c9.645,0,16.926-4.349,17.475-9.655C387.6,374.275,378.94,369.408,369.285,369.408Zm10.473,10.473c-.319,3.152-4.648,5.745-10.383,5.745s-9.845-2.623-10.393-5.745c-.728-4.12,4.6-7.191,10.333-7.191S380.2,375.592,379.758,379.881Z" transform="translate(-317.878 -369.408)" fill="#ddc357"/>
          <path id="Path_129" data-name="Path 129" d="M317.878,421.535v2.513l7.87,4.538v-2.513Z" transform="translate(-317.878 -385.279)" fill="#a36a40"/>
          <path id="Path_130" data-name="Path 130" d="M333.376,428.152v-2.513l7.648,4.374v2.513Z" transform="translate(-322.596 -386.529)" fill="#a36a40"/>
          <path id="Path_131" data-name="Path 131" d="M348.461,428.533v2.513l-4.089,2.361v-2.513Z" transform="translate(-325.944 -387.41)" fill="#cc8a58"/>
          <path id="Path_132" data-name="Path 132" d="M346.189,421.85v2.513l1.544.819v-2.513Z" transform="translate(-326.497 -385.375)" fill="#a36a40"/>
          <path id="Path_133" data-name="Path 133" d="M351.092,420.8v2.513l-2.683,1.546V422.35Z" transform="translate(-327.173 -385.057)" fill="#cc8a58"/>
          <path id="Path_134" data-name="Path 134" d="M359.154,422.284V424.8l2.784-1.7v-2.513Z" transform="translate(-330.445 -384.99)" fill="#cc8a58"/>
          <path id="Path_135" data-name="Path 135" d="M371.642,398.832v2.513l-16.6,9.584-2.123-1.288Z" transform="translate(-328.546 -378.367)" fill="#a36a40"/>
        </g>
      </g>
    </g>
    <g id="smartphone" transform="translate(1138.799 300)">
      <path id="Path_18286" data-name="Path 18286" d="M151.27,6.4H83.4A14.207,14.207,0,0,0,69.2,20.6V146.749a14.207,14.207,0,0,0,14.2,14.2H151.27a14.207,14.207,0,0,0,14.2-14.2V20.416A14.29,14.29,0,0,0,151.27,6.4Z" transform="translate(-3.234 -3.449)" fill="#f0e9e0"/>
      <path id="Path_18287" data-name="Path 18287" d="M81.4,146.349V20.2A14.207,14.207,0,0,1,95.6,6H83.8A14.207,14.207,0,0,0,69.6,20.2V146.349a14.207,14.207,0,0,0,14.2,14.2H95.6A14.326,14.326,0,0,1,81.4,146.349Z" transform="translate(-3.449 -3.234)" fill="#f7f7f7"/>
      <rect id="Rectangle_2554" data-name="Rectangle 2554" width="90.369" height="96.271" transform="translate(68.917 28.217)" fill="#01a9bb"/>
      <rect id="Rectangle_2555" data-name="Rectangle 2555" width="11.803" height="96.271" transform="translate(68.917 28.217)" fill="#27bdc1"/>
      <circle id="Ellipse_296" data-name="Ellipse 296" cx="21.209" cy="21.209" r="21.209" transform="translate(92.893 55.328)" fill="#f8b72b"/>
      <path id="Path_18288" data-name="Path 18288" d="M134.208,141.209a21.208,21.208,0,0,1,17.705-20.84,20.427,20.427,0,0,0-3.5-.369,21.209,21.209,0,0,0,0,42.418,22.6,22.6,0,0,0,3.5-.369A21.208,21.208,0,0,1,134.208,141.209Z" transform="translate(-34.492 -64.672)" fill="#f7c869"/>
      <g id="Group_13934" data-name="Group 13934" transform="translate(63.2)">
        <path id="Path_18289" data-name="Path 18289" d="M148.037,0H80.167A16.923,16.923,0,0,0,63.2,16.967V143.116a16.923,16.923,0,0,0,16.967,16.967h67.869A16.923,16.923,0,0,0,165,143.116V16.967A17.041,17.041,0,0,0,148.037,0ZM68.917,28.217h90.369v96.271H68.917Zm11.25-22.5h67.869a11.178,11.178,0,0,1,11.25,11.25v5.717H68.917V16.967A11.178,11.178,0,0,1,80.167,5.717Zm67.869,148.648H80.167a11.178,11.178,0,0,1-11.25-11.25v-12.91h90.369v12.91A11.178,11.178,0,0,1,148.037,154.366Z" transform="translate(-63.2)" fill="#231f20"/>
        <circle id="Ellipse_297" data-name="Ellipse 297" cx="9.221" cy="9.221" r="9.221" transform="translate(41.681 132.234)" fill="#231f20"/>
        <path id="Path_18290" data-name="Path 18290" d="M145.576,114a23.976,23.976,0,1,0,23.976,23.976A23.928,23.928,0,0,0,145.576,114Zm0,42.418a18.258,18.258,0,1,1,18.258-18.258A18.3,18.3,0,0,1,145.576,156.418Z" transform="translate(-94.674 -61.438)" fill="#231f20"/>
        <path id="Path_18291" data-name="Path 18291" d="M164.167,146.731l-12.357,10.7-4.057-5.717a2.766,2.766,0,0,0-4.426,3.32l5.9,8.3a2.811,2.811,0,0,0,2.029,1.107h.369a2.368,2.368,0,0,0,1.844-.738l14.57-12.725a2.872,2.872,0,0,0-3.873-4.242Z" transform="translate(-106.072 -78.677)" fill="#231f20"/>
      </g>
    </g>
    <g id="password" transform="matrix(0.921, 0.391, -0.391, 0.921, 1182.494, 313.346)">
      <path id="Path_136" data-name="Path 136" d="M154.677,182.831l-15.892,9.175,50.594-27.99-4.489-1.575L135.581,190.9l4.59,16.405,4.469,1.379,41.85-25.857V164.449Z" transform="translate(-135.569 -162.442)" fill="#686868" opacity="0.2"/>
      <g id="Group_66" data-name="Group 66" transform="translate(4.469 1.35)">
        <g id="Group_64" data-name="Group 64">
          <path id="Path_137" data-name="Path 137" d="M162.921,184.757,195.381,166v18.756L151.3,210.9l-4.59-16.779Z" transform="translate(-143.424 -164.875)" fill="#ddc357"/>
          <path id="Path_138" data-name="Path 138" d="M145.275,205.935l-3.269-1.126,4.59,16.779,3.269,1.126Z" transform="translate(-141.994 -176.691)" fill="#b67b47"/>
          <path id="Path_139" data-name="Path 139" d="M142.012,192.5l48.675-28.118,3.269,1.126-48.675,28.118Z" transform="translate(-141.999 -164.382)" fill="#cc8a58"/>
        </g>
        <g id="Group_65" data-name="Group 65" transform="translate(8.514 10.901)">
          <path id="Path_140" data-name="Path 140" d="M162.667,211.088l-2.354-1.418,2.354-1.419a.539.539,0,0,0-.132-1.022l-.661-.2a.933.933,0,0,0-.734.091l-1.776,1.07v-2.814c0-.557-.428-.906-.771-.627l-.479.391a.812.812,0,0,0-.257.626v2.423l-1.775-1.069a.933.933,0,0,0-.734-.091l-.661.2a.539.539,0,0,0-.132,1.022l2.354,1.419-2.354,1.418a.537.537,0,0,0,.119,1.018l.648.208a.93.93,0,0,0,.748-.087l1.788-1.077v2.758c0,.557.428.906.771.627l.482-.392a.81.81,0,0,0,.257-.627V211.15l1.789,1.077a.93.93,0,0,0,.748.087l.648-.208A.537.537,0,0,0,162.667,211.088Z" transform="translate(-154.235 -187.544)" fill="#f2f3f5"/>
          <path id="Path_141" data-name="Path 141" d="M177.083,202.894l-2.354-1.419,2.354-1.418a.538.538,0,0,0-.131-1.022l-.661-.2a.936.936,0,0,0-.734.091L173.779,200v-2.815c0-.557-.428-.9-.771-.626l-.479.391a.811.811,0,0,0-.257.626V200l-1.775-1.07a.936.936,0,0,0-.734-.091l-.661.2a.539.539,0,0,0-.132,1.022l2.354,1.418-2.354,1.419a.537.537,0,0,0,.119,1.018l.648.208a.933.933,0,0,0,.748-.087l1.788-1.077v2.758c0,.557.428.906.771.627l.482-.392a.813.813,0,0,0,.257-.627v-2.367l1.789,1.078a.933.933,0,0,0,.748.087l.648-.208A.537.537,0,0,0,177.083,202.894Z" transform="translate(-158.625 -185.049)" fill="#f2f3f5"/>
          <path id="Path_142" data-name="Path 142" d="M191.347,194.7l-2.354-1.418,2.354-1.418a.539.539,0,0,0-.132-1.023l-.661-.2a.933.933,0,0,0-.734.091l-1.776,1.07v-2.814c0-.557-.428-.9-.771-.626l-.48.39a.814.814,0,0,0-.257.627V191.8l-1.775-1.07a.933.933,0,0,0-.734-.091l-.661.2a.539.539,0,0,0-.132,1.023l2.354,1.418-2.354,1.418a.538.538,0,0,0,.119,1.019l.648.208a.936.936,0,0,0,.748-.087l1.788-1.077v2.758c0,.557.428.9.771.627l.482-.392a.811.811,0,0,0,.257-.627v-2.366l1.789,1.078a.936.936,0,0,0,.748.087l.648-.208A.538.538,0,0,0,191.347,194.7Z" transform="translate(-162.968 -182.554)" fill="#f2f3f5"/>
          <path id="Path_143" data-name="Path 143" d="M205.611,186.492l-2.354-1.418,2.354-1.418a.539.539,0,0,0-.132-1.023l-.661-.2a.933.933,0,0,0-.734.091l-1.776,1.07V180.78c0-.557-.428-.9-.771-.626l-.48.391a.813.813,0,0,0-.257.626v2.423l-1.776-1.07a.932.932,0,0,0-.734-.091l-.661.2a.539.539,0,0,0-.131,1.023l2.354,1.418-2.354,1.418a.538.538,0,0,0,.118,1.019l.648.208a.936.936,0,0,0,.748-.087l1.788-1.077v2.758c0,.557.428.9.771.627l.481-.392a.814.814,0,0,0,.257-.627v-2.367l1.789,1.078a.936.936,0,0,0,.748.087l.648-.208A.538.538,0,0,0,205.611,186.492Z" transform="translate(-167.311 -180.056)" fill="#f2f3f5"/>
        </g>
      </g>
    </g>
  </g>
</svg>
