<svg xmlns="http://www.w3.org/2000/svg" xmlns:xlink="http://www.w3.org/1999/xlink" width="268.546" height="266.64" viewBox="0 0 268.546 266.64">
  <defs>
    <linearGradient id="linear-gradient" x1="0.525" y1="0.568" x2="0.279" y2="-0.111" gradientUnits="objectBoundingBox">
      <stop offset="0" stop-color="#e3eff7"/>
      <stop offset="1" stop-color="#cce6ef"/>
    </linearGradient>
  </defs>
  <g id="Group_15038" data-name="Group 15038" transform="translate(-1118.454 -238.232)">
    <g id="Group_67" data-name="Group 67" transform="translate(1032 181)">
      <g id="_line" data-name="
line" transform="translate(86.454 92.463)">
        <g id="Group_1" data-name="Group 1">
          <path id="Path_1" data-name="Path 1" d="M86.84,222.017l-.386-.579c1.251-.834,2.612-1.673,4.164-2.564l.346.6C89.427,220.362,88.077,221.192,86.84,222.017Zm98.675-4.209-.7,0q.014-2.433.03-4.869l.7.006Q185.528,215.375,185.515,217.808Zm-90.3-.675-.329-.613,1.057-.565c1.075-.575,2.152-1.151,3.227-1.742l.335.61c-1.077.591-2.155,1.169-3.234,1.745Zm8.519-4.752-.363-.593c1.471-.9,2.788-1.78,4.026-2.683l.41.563C106.558,210.582,105.226,211.469,103.739,212.381Zm81.844-4.311-.7-.006.041-4.869.7.006Zm-73.8-1.148-.349-.6c1.381-.8,2.834-1.538,4.325-2.285l.312.622C114.587,205.4,113.145,206.132,111.782,206.923Zm8.631-4.5-.336-.609a29.2,29.2,0,0,0,4.04-2.605l.431.546A29.89,29.89,0,0,1,120.413,202.422Zm65.255-4.088-.7-.007.047-4.869.7.007ZM127.906,196.1l-.593-.364a9.933,9.933,0,0,0,1.438-4.426l.693.061A10.611,10.611,0,0,1,127.906,196.1Zm57.856-7.506-.7-.007.047-4.869.7.007Zm-55.956-2.087-.694-.041c.091-1.564.162-3.152.216-4.854l.695.022C129.969,183.344,129.9,184.938,129.806,186.509Zm56.049-7.65-.7-.006.042-4.869.7.006Zm-55.735-2.1-.7-.007q.016-1.556.015-3.108,0-.877,0-1.755l.7,0q0,.88,0,1.758Q130.135,175.2,130.121,176.76Zm55.816-7.638-.7,0,.033-4.869.7,0Zm-56.543-2.1-.063-4.868.7-.009.063,4.869Zm56.6-7.641-.7,0q.01-2.435.017-4.869l.7,0Q186,156.947,185.995,159.383Zm-56.714-2.1q-.008-1.355-.009-2.713,0-1.079.006-2.161l.7,0q-.006,1.079-.006,2.156,0,1.356.009,2.708Zm56.739-7.641h-.7v-1.171q0-1.849,0-3.7h.7q0,1.849,0,3.7Zm-55.969-2.089-.7-.018q.05-1.9.136-3.807c.054-.389.111-.744.176-1.1l.684.124q-.094.521-.169,1.041C130.128,145.032,130.083,146.3,130.05,147.556Zm55.256-7.647q-.011-2.435-.029-4.867l.7-.006q.018,2.433.029,4.869Zm-53.68-1.78-.651-.245a25.048,25.048,0,0,1,2.168-4.427l.59.367A24.43,24.43,0,0,0,131.626,138.129Zm53.608-7.954q-.026-2.436-.061-4.867l.7-.01q.034,2.433.061,4.87Zm-48.57-.061-.417-.556c1.337-1,2.658-1.973,3.93-2.888l.406.565C139.316,128.146,138,129.115,136.664,130.113Zm7.9-5.676-.394-.575c1.367-.937,2.732-1.848,4.058-2.707l.378.584C147.282,122.6,145.922,123.5,144.56,124.438Zm40.535-4q-.04-2.225-.088-4.445c-.014-.1-.034-.233-.058-.365l.686-.12c.024.143.047.288.065.434.035,1.516.064,3,.09,4.483Zm-32.377-1.285-.361-.595c1.409-.856,2.826-1.685,4.211-2.466l.342.606C155.531,117.478,154.121,118.3,152.718,119.156Zm8.462-4.764-.32-.617c1.451-.752,2.923-1.479,4.376-2.162l.3.629C164.088,112.921,162.624,113.645,161.18,114.392Zm21.736-2.9a9.4,9.4,0,0,0-3.861-2.585l.232-.655a10.094,10.094,0,0,1,4.147,2.777Zm-12.952-1.226-.27-.641c1.033-.436,2.081-.861,3.116-1.263a8.121,8.121,0,0,1,1.495-.475l.147.68a7.556,7.556,0,0,0-1.379.439C172.034,109.408,170.992,109.83,169.964,110.264Z" transform="translate(-86.454 -107.885)" fill="#78a1de"/>
        </g>
        <g id="Group_2" data-name="Group 2" transform="translate(98.365 113.885)">
          <path id="Path_2" data-name="Path 2" d="M227.878,276.145v-4.522h.7v3.336l.3-.169.34.607Z" transform="translate(-227.878 -271.623)" fill="#78a1de"/>
        </g>
        <g id="Group_4" data-name="Group 4" transform="translate(61.008 42.274)">
          <g id="Group_3" data-name="Group 3">
            <path id="Path_3" data-name="Path 3" d="M235.184,342.3a23.626,23.626,0,0,1-2.46-.128l.074-.708a23.252,23.252,0,0,0,4.9-.014l.077.708A23.836,23.836,0,0,1,235.184,342.3Zm-7.4-1.176a23.94,23.94,0,0,1-4.612-2.07l.36-.616A23.131,23.131,0,0,0,228,340.445Zm14.936-.043-.225-.677a23.182,23.182,0,0,0,4.266-1.918l.2-.116.355.618-.2.115A23.951,23.951,0,0,1,242.716,341.08Zm-23.849-4.556-4.3-2.528.361-.614,4.3,2.528Zm32.766-.031-.356-.617,4.321-2.494.356.617Zm8.64-4.988-.356-.617,4.321-2.494.356.617Zm-50.007-.036-4.3-2.528.361-.614,4.3,2.528Zm58.648-4.952-.356-.617,4.319-2.494.357.617Zm-67.249-.1-4.3-2.528.362-.614,4.3,2.528Zm75.889-4.885-.356-.617,4.32-2.494.357.617Zm-84.489-.172-4.3-2.528.361-.614,4.3,2.528Zm168.886-2.9-4.353-2.436.348-.622,4.353,2.436Zm-75.757-1.917-.356-.617,4.32-2.494.357.617Zm-101.73-.239-4.3-2.528.361-.614,4.3,2.528Zm168.781-2.715-4.353-2.436.348-.622,4.354,2.436Zm-58.411-2.034-.356-.617,4.32-2.494.357.617Zm-118.773-.772a8.337,8.337,0,0,1-1.893-4.764l.712-.05a7.613,7.613,0,0,0,1.73,4.359Zm168.477-2.066-4.353-2.436.348-.622,4.353,2.436Zm-41.064-2.151-.356-.617,4.32-2.494.357.617Zm32.358-2.722-1.093-.611a26.121,26.121,0,0,0-3.332-1.567l.257-.666a26.945,26.945,0,0,1,3.423,1.611l1.093.611Zm-23.645-2.021-.268-.66a26.714,26.714,0,0,1,4.837-1.448l.139.7A25.987,25.987,0,0,0,312.187,301.821ZM175.973,301.4l-.609-.369a8.312,8.312,0,0,1,3-2.913l.817-.472.356.617-.817.472A7.623,7.623,0,0,0,175.973,301.4Zm150.7-1.07a26.07,26.07,0,0,0-4.682-.424h-.214l-.007-.712h.217a26.922,26.922,0,0,1,4.813.434ZM183.853,295.77l-.356-.617,4.32-2.494.356.617Zm8.64-4.988-.356-.617,4.32-2.495.357.617Zm8.641-4.989-.357-.617,4.32-2.494.356.617Zm8.639-4.988-.356-.617,4.32-2.495.356.617Zm8.64-4.989-.356-.617,4.32-2.494.356.617Zm8.64-4.988-.356-.617,4.321-2.494.356.617Zm8.641-4.989-.356-.617,4.32-2.494.356.617Zm8.64-4.988-.356-.617,4.32-2.494.356.617Zm8.64-4.988-.356-.617,4.32-2.495.356.617Zm8.64-4.989-.356-.617,4.32-2.494.356.617Zm8.64-4.988-.356-.617,4.32-2.494.356.617Zm8.64-4.989-.356-.617,4.32-2.494.356.617Zm-56.5-2.168-.348-.622,4.353-2.436.348.622Zm65.138-2.82-.356-.617L291.5,232.8l.356.617ZM231.1,233.856l-.348-.623,4.353-2.436.348.622Zm65.071-2.937-.356-.617,4.321-2.495.356.617Zm-56.364-1.934-.348-.623,4.353-2.435.348.622Zm65-3.055-.356-.617,4.32-2.494.357.617Zm-56.3-1.816-.348-.622,4.353-2.436.348.622Zm64.937-3.172-.356-.617,4.32-2.495.357.617Zm-56.231-1.7-.348-.622,4.353-2.436.348.622Zm64.871-3.29-.356-.617,4.32-2.494.357.617Zm-56.164-1.582-.348-.622,4.353-2.436.348.622Zm64.8-3.407-.356-.618,4.319-2.494.357.618Zm-56.1-1.465-.348-.622,4.353-2.436.348.622Zm64.738-3.524-.356-.617,4.319-2.494.357.617Zm-56.031-1.347-.348-.622,4.353-2.436.348.623Zm64.671-3.642-.356-.618,4.319-2.494.357.618Zm-55.964-1.23-.348-.623,4.353-2.436.348.623Zm64.6-3.759-.356-.618,2.313-1.335a12.774,12.774,0,0,0,1.843-1.292l.46.545a13.409,13.409,0,0,1-1.947,1.364Zm-55.9-1.113-.348-.622,4.353-2.436.348.622Zm8.707-4.871-.348-.622,4.353-2.436.348.623Zm54.619-.708-.634-.323a12.366,12.366,0,0,0,1.3-4.639l.709.056A13.042,13.042,0,0,1,364.079,189.306Zm-45.912-4.163-.348-.623,4.353-2.435.348.622Zm8.707-4.871-.348-.622,4.353-2.436.348.622Zm37.325-.715a12.078,12.078,0,0,0-2.334-4.21l.542-.463a12.794,12.794,0,0,1,2.472,4.456ZM335.58,175.4l-.348-.622,4.353-2.436.348.622Zm22.491-3.058-2.3-1.328a12.419,12.419,0,0,0-2.057-.949l.238-.671a13.1,13.1,0,0,1,2.176,1l2.3,1.327Zm-13.793-1.779-.307-.643a13,13,0,0,1,4.939-1.255l.038.712A12.287,12.287,0,0,0,344.278,170.563Z" transform="translate(-174.168 -168.665)" fill="#78a1de"/>
          </g>
        </g>
        <g id="Group_5" data-name="Group 5" transform="translate(253.038 193.826)">
          <rect id="Rectangle_1" data-name="Rectangle 1" width="0.696" height="3.93" transform="translate(0 0.607) rotate(-60.772)" fill="#78a1de"/>
        </g>
      </g>
      <g id="Laptop" transform="translate(136.808 57.232)">
        <path id="Path_4" data-name="Path 4" d="M378.083,272.1v-.083l-.006.008a3.292,3.292,0,0,0-1.692-2.817l-80.238-45.165a3.333,3.333,0,0,0-3.3.017l-128.914,74.4a3.289,3.289,0,0,0-1.656,2.723l-.01-.007v3.478l.025.013a3.278,3.278,0,0,0,1.641,2.685l78.614,45.4a3.333,3.333,0,0,0,3.32.007L376.4,278.124a3.288,3.288,0,0,0,1.668-2.823l.01-.007V272.1Z" transform="translate(-159.89 -107.89)" fill="#abaaaf" opacity="0.2"/>
        <g id="Laptop-2" data-name="Laptop">
          <g id="Group_6" data-name="Group 6">
            <path id="Path_5" data-name="Path 5" d="M291.716,62.4a3.1,3.1,0,0,0-1.552-2.674l-3.468-2a3.721,3.721,0,0,0-3.716,0L160.548,128.3a3.405,3.405,0,0,0-1.7,2.934V239.881a3.4,3.4,0,0,0,5.093,2.934L290.39,169.842a3.4,3.4,0,0,0,1.7-2.955Z" transform="translate(-158.85 -57.232)" fill="#b8b8c4"/>
            <path id="Path_6" data-name="Path 6" d="M294.631,63.766a3.225,3.225,0,0,0-4.835-2.758l-119.76,68.446a3.193,3.193,0,0,0-1.614,2.77V234.558a3.225,3.225,0,0,0,4.837,2.77l120.13-68.744A3.192,3.192,0,0,0,295,165.8Z" transform="translate(-161.764 -58.25)" fill="#4a4c62"/>
            <path id="Path_7" data-name="Path 7" d="M182.754,142.171l-.005,93,109.537-62.039v-94.2Z" transform="translate(-166.127 -63.839)" fill="url(#linear-gradient)"/>
          </g>
          <g id="Group_60" data-name="Group 60" transform="translate(3.278 112.121)">
            <g id="Group_7" data-name="Group 7">
              <path id="Path_8" data-name="Path 8" d="M374.993,268.53a3.223,3.223,0,0,0-.97-.869l-78.867-44.394a3.274,3.274,0,0,0-3.243.017L165.2,296.416a3.267,3.267,0,0,0-.514.4l-1.124-.8v3.419l.024.013a3.223,3.223,0,0,0,1.612,2.64l77.272,44.625a3.276,3.276,0,0,0,3.263.008l128.308-73.365a3.234,3.234,0,0,0,1.64-2.775l.009-.006v-.067a.045.045,0,0,1,0-.01v-3.146Z" transform="translate(-163.563 -219.778)" fill="#abaaaf"/>
              <path id="Path_9" data-name="Path 9" d="M374.024,263.249l-78.867-44.394a3.276,3.276,0,0,0-3.243.017L165.2,292.006a3.275,3.275,0,0,0,0,5.673L242.471,342.3a3.276,3.276,0,0,0,3.263.007l128.308-73.365A3.275,3.275,0,0,0,374.024,263.249Z" transform="translate(-163.562 -218.435)" fill="#f4f5f7"/>
              <path id="Path_10" data-name="Path 10" d="M172,337.285l-2.089-1.205a.242.242,0,0,0-.363.209v.925a.242.242,0,0,0,.121.21l2.089,1.206a.242.242,0,0,0,.364-.209v-.926A.244.244,0,0,0,172,337.285Z" transform="translate(-165.384 -254.244)" fill="#525252"/>
            </g>
            <g id="Group_8" data-name="Group 8" transform="translate(107.429 59.64)">
              <path id="Path_11" data-name="Path 11" d="M372.959,316.709l-21.11-12.34a1.363,1.363,0,0,0-1.37,0L318.7,322.715a1.364,1.364,0,0,0,0,2.363L339.779,337.2a1.365,1.365,0,0,0,1.356,0l31.811-18.134A1.364,1.364,0,0,0,372.959,316.709Z" transform="translate(-318.019 -304.182)" fill="#bababa"/>
              <path id="Path_12" data-name="Path 12" d="M372.959,317.2l-21.11-12.34a1.362,1.362,0,0,0-1.37,0L318.7,323.2a1.364,1.364,0,0,0,0,2.363l21.076,12.126a1.365,1.365,0,0,0,1.356,0l31.811-18.135A1.364,1.364,0,0,0,372.959,317.2Z" transform="translate(-318.019 -304.332)" fill="#cfccce"/>
            </g>
            <g id="Group_59" data-name="Group 59" transform="translate(21.527 8.406)">
              <g id="Group_9" data-name="Group 9" transform="translate(36.449 81.938)">
                <path id="Path_13" data-name="Path 13" d="M260.429,352.244l-6.515-3.543a.464.464,0,0,0-.459.01l-6.253,3.748a.463.463,0,0,0,.007.8l6.123,3.524a.463.463,0,0,0,.458,0l6.646-3.729A.463.463,0,0,0,260.429,352.244Z" transform="translate(-246.935 -348.424)" fill="#505050"/>
                <path id="Path_14" data-name="Path 14" d="M260.37,351.927l-6.515-3.543a.464.464,0,0,0-.459.01l-6.254,3.748a.463.463,0,0,0,.007.8l6.123,3.524a.463.463,0,0,0,.458,0l6.646-3.729A.463.463,0,0,0,260.37,351.927Z" transform="translate(-246.917 -348.327)" fill="#626365"/>
              </g>
              <g id="Group_10" data-name="Group 10" transform="translate(45.502 76.791)">
                <path id="Path_15" data-name="Path 15" d="M273.446,344.843l-6.515-3.542a.462.462,0,0,0-.459.01l-6.254,3.747a.463.463,0,0,0,.007.8l6.123,3.524a.463.463,0,0,0,.458,0l6.645-3.73A.463.463,0,0,0,273.446,344.843Z" transform="translate(-259.952 -341.024)" fill="#505050"/>
                <path id="Path_16" data-name="Path 16" d="M273.386,344.526l-6.514-3.542a.462.462,0,0,0-.459.01l-6.254,3.747a.463.463,0,0,0,.007.8l6.123,3.524a.463.463,0,0,0,.458,0l6.645-3.73A.463.463,0,0,0,273.386,344.526Z" transform="translate(-259.934 -340.927)" fill="#626365"/>
              </g>
              <g id="Group_11" data-name="Group 11" transform="translate(41.979 68.58)">
                <path id="Path_17" data-name="Path 17" d="M268.38,333.039l-6.515-3.542a.461.461,0,0,0-.459.01l-6.254,3.747a.463.463,0,0,0,.007.8l6.123,3.524a.462.462,0,0,0,.457,0l6.646-3.73A.463.463,0,0,0,268.38,333.039Z" transform="translate(-254.886 -329.219)" fill="#505050"/>
                <path id="Path_18" data-name="Path 18" d="M268.321,332.722l-6.515-3.542a.46.46,0,0,0-.459.01l-6.253,3.748a.463.463,0,0,0,.007.8l6.123,3.524a.463.463,0,0,0,.458,0l6.646-3.73A.463.463,0,0,0,268.321,332.722Z" transform="translate(-254.868 -329.123)" fill="#626365"/>
              </g>
              <g id="Group_12" data-name="Group 12" transform="translate(51.765 62.602)">
                <path id="Path_19" data-name="Path 19" d="M282.45,324.444l-6.515-3.543a.464.464,0,0,0-.459.01l-6.254,3.748a.462.462,0,0,0,.007.8l6.123,3.525a.461.461,0,0,0,.457,0l6.646-3.729A.463.463,0,0,0,282.45,324.444Z" transform="translate(-268.956 -320.624)" fill="#505050"/>
                <path id="Path_20" data-name="Path 20" d="M282.391,324.126l-6.515-3.543a.464.464,0,0,0-.459.01l-6.254,3.748a.462.462,0,0,0,.007.8l6.123,3.525a.462.462,0,0,0,.457,0l6.646-3.729A.463.463,0,0,0,282.391,324.126Z" transform="translate(-268.938 -320.527)" fill="#626365"/>
              </g>
              <g id="Group_13" data-name="Group 13" transform="translate(61.175 57.028)">
                <path id="Path_21" data-name="Path 21" d="M295.979,316.429l-6.514-3.542a.462.462,0,0,0-.459.01l-6.254,3.748a.463.463,0,0,0,.007.8l6.123,3.524a.463.463,0,0,0,.458,0l6.645-3.73A.463.463,0,0,0,295.979,316.429Z" transform="translate(-282.486 -312.61)" fill="#505050"/>
                <path id="Path_22" data-name="Path 22" d="M295.92,316.112l-6.515-3.542a.462.462,0,0,0-.459.01l-6.254,3.748a.462.462,0,0,0,.007.8l6.123,3.524a.462.462,0,0,0,.457,0l6.646-3.73A.463.463,0,0,0,295.92,316.112Z" transform="translate(-282.467 -312.513)" fill="#626365"/>
              </g>
              <g id="Group_14" data-name="Group 14" transform="translate(71.239 51.571)">
                <path id="Path_23" data-name="Path 23" d="M310.449,308.584l-6.515-3.542a.462.462,0,0,0-.459.009l-6.254,3.748a.463.463,0,0,0,.007.8l6.123,3.524a.462.462,0,0,0,.457,0l6.646-3.73A.463.463,0,0,0,310.449,308.584Z" transform="translate(-296.955 -304.764)" fill="#505050"/>
                <path id="Path_24" data-name="Path 24" d="M310.39,308.267l-6.515-3.542a.462.462,0,0,0-.459.009l-6.254,3.748a.463.463,0,0,0,.007.8l6.123,3.524a.462.462,0,0,0,.457,0l6.646-3.73A.463.463,0,0,0,310.39,308.267Z" transform="translate(-296.937 -304.668)" fill="#626365"/>
              </g>
              <g id="Group_15" data-name="Group 15" transform="translate(34.826 62.018)">
                <path id="Path_25" data-name="Path 25" d="M258.1,323.6l-6.515-3.543a.464.464,0,0,0-.459.01l-6.254,3.748a.462.462,0,0,0,.007.8L251,328.141a.463.463,0,0,0,.458,0l6.646-3.729A.463.463,0,0,0,258.1,323.6Z" transform="translate(-244.602 -319.784)" fill="#505050"/>
                <path id="Path_26" data-name="Path 26" d="M258.037,323.286l-6.515-3.543a.464.464,0,0,0-.459.01l-6.254,3.748a.462.462,0,0,0,.007.8l6.123,3.525a.463.463,0,0,0,.458,0l6.646-3.729A.463.463,0,0,0,258.037,323.286Z" transform="translate(-244.584 -319.687)" fill="#626365"/>
              </g>
              <g id="Group_16" data-name="Group 16" transform="translate(44.612 56.039)">
                <path id="Path_27" data-name="Path 27" d="M272.166,315.008l-6.515-3.542a.462.462,0,0,0-.459.009l-6.254,3.748a.463.463,0,0,0,.007.8l6.123,3.524a.462.462,0,0,0,.457,0l6.646-3.73A.463.463,0,0,0,272.166,315.008Z" transform="translate(-258.672 -311.188)" fill="#505050"/>
                <path id="Path_28" data-name="Path 28" d="M272.107,314.691l-6.515-3.542a.462.462,0,0,0-.459.009l-6.254,3.748a.463.463,0,0,0,.007.8l6.123,3.524a.463.463,0,0,0,.458,0l6.646-3.73A.463.463,0,0,0,272.107,314.691Z" transform="translate(-258.654 -311.092)" fill="#626365"/>
              </g>
              <g id="Group_17" data-name="Group 17" transform="translate(54.022 50.465)">
                <path id="Path_29" data-name="Path 29" d="M285.7,306.993l-6.515-3.543a.464.464,0,0,0-.459.01l-6.254,3.748a.463.463,0,0,0,.007.8l6.123,3.524a.462.462,0,0,0,.457,0L285.7,307.8A.463.463,0,0,0,285.7,306.993Z" transform="translate(-272.201 -303.174)" fill="#505050"/>
                <path id="Path_30" data-name="Path 30" d="M285.636,306.677l-6.515-3.543a.464.464,0,0,0-.459.01l-6.254,3.748a.463.463,0,0,0,.007.8l6.123,3.524a.462.462,0,0,0,.457,0l6.646-3.729A.463.463,0,0,0,285.636,306.677Z" transform="translate(-272.183 -303.077)" fill="#626365"/>
              </g>
              <g id="Group_18" data-name="Group 18" transform="translate(64.086 45.009)">
                <path id="Path_31" data-name="Path 31" d="M300.165,299.148l-6.515-3.543a.464.464,0,0,0-.459.01l-6.254,3.748a.462.462,0,0,0,.007.8l6.123,3.525a.462.462,0,0,0,.457,0l6.646-3.729A.463.463,0,0,0,300.165,299.148Z" transform="translate(-286.671 -295.329)" fill="#505050"/>
                <path id="Path_32" data-name="Path 32" d="M300.106,298.832l-6.515-3.543a.464.464,0,0,0-.459.01l-6.254,3.748a.462.462,0,0,0,.007.8l6.123,3.525a.463.463,0,0,0,.458,0l6.646-3.729A.463.463,0,0,0,300.106,298.832Z" transform="translate(-286.653 -295.232)" fill="#626365"/>
              </g>
              <g id="Group_19" data-name="Group 19" transform="translate(73.629 39.157)">
                <path id="Path_33" data-name="Path 33" d="M313.885,290.736l-6.514-3.543a.464.464,0,0,0-.459.01l-6.254,3.748a.463.463,0,0,0,.007.8l6.123,3.525a.463.463,0,0,0,.458,0l6.645-3.729A.463.463,0,0,0,313.885,290.736Z" transform="translate(-300.392 -286.916)" fill="#505050"/>
                <path id="Path_34" data-name="Path 34" d="M313.826,290.419l-6.515-3.543a.464.464,0,0,0-.459.01l-6.254,3.748a.462.462,0,0,0,.007.8l6.123,3.525a.462.462,0,0,0,.457,0l6.646-3.729A.463.463,0,0,0,313.826,290.419Z" transform="translate(-300.373 -286.819)" fill="#626365"/>
              </g>
              <g id="Group_20" data-name="Group 20" transform="translate(83.415 33.179)">
                <path id="Path_35" data-name="Path 35" d="M327.956,282.14l-6.515-3.542a.461.461,0,0,0-.459.01l-6.254,3.748a.463.463,0,0,0,.007.8l6.123,3.524a.463.463,0,0,0,.458,0l6.645-3.73A.463.463,0,0,0,327.956,282.14Z" transform="translate(-314.462 -278.32)" fill="#505050"/>
                <path id="Path_36" data-name="Path 36" d="M327.9,281.823l-6.514-3.542a.461.461,0,0,0-.459.01l-6.254,3.747a.463.463,0,0,0,.007.8l6.123,3.524a.463.463,0,0,0,.458,0l6.645-3.73A.463.463,0,0,0,327.9,281.823Z" transform="translate(-314.444 -278.224)" fill="#626365"/>
              </g>
              <g id="Group_21" data-name="Group 21" transform="translate(92.825 27.605)">
                <path id="Path_37" data-name="Path 37" d="M341.485,274.126l-6.515-3.542a.462.462,0,0,0-.459.009l-6.254,3.748a.463.463,0,0,0,.007.8l6.123,3.524a.465.465,0,0,0,.458,0l6.646-3.73A.463.463,0,0,0,341.485,274.126Z" transform="translate(-327.991 -270.306)" fill="#505050"/>
                <path id="Path_38" data-name="Path 38" d="M341.426,273.809l-6.515-3.543a.464.464,0,0,0-.459.01l-6.254,3.748a.463.463,0,0,0,.008.8l6.123,3.524a.463.463,0,0,0,.458,0l6.645-3.729A.463.463,0,0,0,341.426,273.809Z" transform="translate(-327.973 -270.209)" fill="#626365"/>
              </g>
              <g id="Group_22" data-name="Group 22" transform="translate(90.289 18.539)">
                <path id="Path_39" data-name="Path 39" d="M337.838,261.091l-6.515-3.542a.461.461,0,0,0-.459.01l-6.254,3.747a.463.463,0,0,0,.007.8l6.123,3.524a.462.462,0,0,0,.457,0l6.646-3.73A.463.463,0,0,0,337.838,261.091Z" transform="translate(-324.344 -257.271)" fill="#505050"/>
                <path id="Path_40" data-name="Path 40" d="M337.779,260.774l-6.515-3.542a.46.46,0,0,0-.459.01l-6.254,3.748a.463.463,0,0,0,.007.8l6.123,3.524a.463.463,0,0,0,.458,0l6.646-3.73A.463.463,0,0,0,337.779,260.774Z" transform="translate(-324.326 -257.175)" fill="#626365"/>
              </g>
              <g id="Group_23" data-name="Group 23" transform="translate(99.323 12.526)">
                <path id="Path_41" data-name="Path 41" d="M350.826,252.446l-6.515-3.542a.461.461,0,0,0-.459.01l-6.254,3.748a.463.463,0,0,0,.007.8l6.123,3.524a.462.462,0,0,0,.457,0l6.646-3.73A.463.463,0,0,0,350.826,252.446Z" transform="translate(-337.332 -248.626)" fill="#505050"/>
                <path id="Path_42" data-name="Path 42" d="M350.767,252.129l-6.515-3.542a.461.461,0,0,0-.459.01l-6.253,3.748a.463.463,0,0,0,.007.8l6.123,3.524a.463.463,0,0,0,.458,0l6.646-3.73A.463.463,0,0,0,350.767,252.129Z" transform="translate(-337.314 -248.53)" fill="#626365"/>
              </g>
              <g id="Group_24" data-name="Group 24" transform="translate(81.989 12.359)">
                <path id="Path_43" data-name="Path 43" d="M325.9,252.207l-6.514-3.543a.464.464,0,0,0-.459.01l-6.254,3.748a.463.463,0,0,0,.007.8l6.123,3.525a.463.463,0,0,0,.458,0l6.645-3.729A.463.463,0,0,0,325.9,252.207Z" transform="translate(-312.411 -248.387)" fill="#505050"/>
                <path id="Path_44" data-name="Path 44" d="M325.845,251.889l-6.515-3.543a.464.464,0,0,0-.459.01l-6.254,3.748a.462.462,0,0,0,.007.8l6.123,3.525a.462.462,0,0,0,.457,0l6.646-3.729A.463.463,0,0,0,325.845,251.889Z" transform="translate(-312.392 -248.29)" fill="#626365"/>
              </g>
              <g id="Group_25" data-name="Group 25" transform="translate(91.381 7.229)">
                <path id="Path_45" data-name="Path 45" d="M339.408,244.831l-6.515-3.542a.462.462,0,0,0-.459.01l-6.254,3.748a.462.462,0,0,0,.007.8l6.123,3.524a.463.463,0,0,0,.458,0l6.646-3.73A.463.463,0,0,0,339.408,244.831Z" transform="translate(-325.914 -241.012)" fill="#505050"/>
                <path id="Path_46" data-name="Path 46" d="M339.349,244.514l-6.515-3.542a.462.462,0,0,0-.459.01l-6.254,3.748a.462.462,0,0,0,.007.8l6.123,3.524a.461.461,0,0,0,.458,0l6.646-3.73A.463.463,0,0,0,339.349,244.514Z" transform="translate(-325.896 -240.915)" fill="#626365"/>
              </g>
              <g id="Group_26" data-name="Group 26" transform="translate(22.074 59.056)">
                <path id="Path_47" data-name="Path 47" d="M239.762,319.345l-6.515-3.542a.462.462,0,0,0-.459.009l-6.254,3.748a.463.463,0,0,0,.007.8l6.123,3.524a.463.463,0,0,0,.457,0l6.646-3.73A.463.463,0,0,0,239.762,319.345Z" transform="translate(-226.268 -315.525)" fill="#505050"/>
                <path id="Path_48" data-name="Path 48" d="M239.7,319.028l-6.515-3.542a.462.462,0,0,0-.459.009l-6.254,3.748a.463.463,0,0,0,.007.8l6.123,3.524a.465.465,0,0,0,.458,0l6.646-3.73A.463.463,0,0,0,239.7,319.028Z" transform="translate(-226.25 -315.429)" fill="#626365"/>
              </g>
              <g id="Group_27" data-name="Group 27" transform="translate(31.86 53.078)">
                <path id="Path_49" data-name="Path 49" d="M253.832,310.749l-6.514-3.542a.465.465,0,0,0-.46.01l-6.254,3.748a.462.462,0,0,0,.007.8l6.123,3.524a.463.463,0,0,0,.458,0l6.645-3.73A.463.463,0,0,0,253.832,310.749Z" transform="translate(-240.338 -306.93)" fill="#505050"/>
                <path id="Path_50" data-name="Path 50" d="M253.773,310.432l-6.515-3.542a.464.464,0,0,0-.459.01l-6.254,3.748a.462.462,0,0,0,.007.8l6.123,3.524a.46.46,0,0,0,.457,0l6.646-3.73A.463.463,0,0,0,253.773,310.432Z" transform="translate(-240.32 -306.833)" fill="#626365"/>
              </g>
              <g id="Group_28" data-name="Group 28" transform="translate(41.27 47.503)">
                <path id="Path_51" data-name="Path 51" d="M267.361,302.735l-6.514-3.542a.462.462,0,0,0-.459.01l-6.254,3.747a.463.463,0,0,0,.007.8l6.123,3.524a.463.463,0,0,0,.458,0l6.645-3.73A.463.463,0,0,0,267.361,302.735Z" transform="translate(-253.868 -298.916)" fill="#505050"/>
                <path id="Path_52" data-name="Path 52" d="M267.3,302.418l-6.514-3.542a.463.463,0,0,0-.46.01l-6.254,3.747a.463.463,0,0,0,.007.8l6.123,3.524a.463.463,0,0,0,.458,0l6.645-3.73A.463.463,0,0,0,267.3,302.418Z" transform="translate(-253.849 -298.819)" fill="#626365"/>
              </g>
              <g id="Group_29" data-name="Group 29" transform="translate(51.335 42.047)">
                <path id="Path_53" data-name="Path 53" d="M281.831,294.89l-6.514-3.542a.462.462,0,0,0-.459.009L268.6,295.1a.463.463,0,0,0,.007.8l6.123,3.524a.465.465,0,0,0,.458,0l6.645-3.73A.463.463,0,0,0,281.831,294.89Z" transform="translate(-268.338 -291.07)" fill="#505050"/>
                <path id="Path_54" data-name="Path 54" d="M281.772,294.573l-6.515-3.542a.462.462,0,0,0-.459.009l-6.254,3.748a.463.463,0,0,0,.007.8l6.123,3.524a.463.463,0,0,0,.457,0l6.646-3.73A.463.463,0,0,0,281.772,294.573Z" transform="translate(-268.319 -290.974)" fill="#626365"/>
              </g>
              <g id="Group_30" data-name="Group 30" transform="translate(60.878 36.195)">
                <path id="Path_55" data-name="Path 55" d="M295.552,286.477l-6.515-3.542a.462.462,0,0,0-.459.009l-6.254,3.748a.463.463,0,0,0,.007.8l6.123,3.524a.465.465,0,0,0,.458,0l6.645-3.73A.463.463,0,0,0,295.552,286.477Z" transform="translate(-282.058 -282.657)" fill="#505050"/>
                <path id="Path_56" data-name="Path 56" d="M295.492,286.16l-6.514-3.542a.462.462,0,0,0-.459.009l-6.254,3.748a.463.463,0,0,0,.007.8L288.4,290.7a.465.465,0,0,0,.458,0l6.645-3.73A.463.463,0,0,0,295.492,286.16Z" transform="translate(-282.04 -282.561)" fill="#626365"/>
              </g>
              <g id="Group_31" data-name="Group 31" transform="translate(70.664 30.217)">
                <path id="Path_57" data-name="Path 57" d="M309.622,277.881l-6.515-3.542a.464.464,0,0,0-.459.01l-6.254,3.748a.462.462,0,0,0,.007.8l6.123,3.525a.463.463,0,0,0,.458,0l6.646-3.729A.464.464,0,0,0,309.622,277.881Z" transform="translate(-296.128 -274.062)" fill="#505050"/>
                <path id="Path_58" data-name="Path 58" d="M309.563,277.564l-6.515-3.542a.464.464,0,0,0-.459.01l-6.254,3.748a.462.462,0,0,0,.008.8l6.123,3.525a.463.463,0,0,0,.458,0l6.645-3.729A.463.463,0,0,0,309.563,277.564Z" transform="translate(-296.11 -273.965)" fill="#626365"/>
              </g>
              <g id="Group_32" data-name="Group 32" transform="translate(80.074 24.643)">
                <path id="Path_59" data-name="Path 59" d="M323.151,269.867l-6.515-3.542a.462.462,0,0,0-.459.01l-6.254,3.747a.463.463,0,0,0,.007.8l6.123,3.524a.463.463,0,0,0,.458,0l6.646-3.73A.463.463,0,0,0,323.151,269.867Z" transform="translate(-309.657 -266.048)" fill="#505050"/>
                <path id="Path_60" data-name="Path 60" d="M323.092,269.55l-6.515-3.542a.462.462,0,0,0-.459.01l-6.253,3.747a.463.463,0,0,0,.007.8l6.123,3.524a.463.463,0,0,0,.458,0l6.646-3.73A.463.463,0,0,0,323.092,269.55Z" transform="translate(-309.639 -265.951)" fill="#626365"/>
              </g>
              <g id="Group_33" data-name="Group 33" transform="translate(13.065 53.079)">
                <path id="Path_61" data-name="Path 61" d="M226.809,310.751l-6.515-3.542a.462.462,0,0,0-.459.01l-6.254,3.748a.462.462,0,0,0,.008.8l6.123,3.524a.463.463,0,0,0,.458,0l6.645-3.73A.463.463,0,0,0,226.809,310.751Z" transform="translate(-213.315 -306.932)" fill="#505050"/>
                <path id="Path_62" data-name="Path 62" d="M226.75,310.434l-6.515-3.542a.462.462,0,0,0-.459.01l-6.254,3.748a.462.462,0,0,0,.008.8l6.123,3.524a.461.461,0,0,0,.458,0l6.645-3.73A.463.463,0,0,0,226.75,310.434Z" transform="translate(-213.297 -306.835)" fill="#626365"/>
              </g>
              <g id="Group_34" data-name="Group 34" transform="translate(22.851 47.1)">
                <path id="Path_63" data-name="Path 63" d="M240.879,302.155l-6.515-3.543a.464.464,0,0,0-.459.01l-6.254,3.748a.463.463,0,0,0,.007.8l6.123,3.524a.463.463,0,0,0,.458,0l6.646-3.729A.463.463,0,0,0,240.879,302.155Z" transform="translate(-227.385 -298.336)" fill="#505050"/>
                <path id="Path_64" data-name="Path 64" d="M240.82,301.839,234.3,298.3a.464.464,0,0,0-.459.01l-6.254,3.748a.463.463,0,0,0,.007.8l6.123,3.524a.463.463,0,0,0,.458,0l6.646-3.729A.463.463,0,0,0,240.82,301.839Z" transform="translate(-227.367 -298.24)" fill="#626365"/>
              </g>
              <g id="Group_35" data-name="Group 35" transform="translate(32.261 41.526)">
                <path id="Path_65" data-name="Path 65" d="M254.408,294.142l-6.515-3.543a.464.464,0,0,0-.459.01l-6.253,3.748a.462.462,0,0,0,.007.8l6.123,3.525a.463.463,0,0,0,.458,0l6.646-3.729A.463.463,0,0,0,254.408,294.142Z" transform="translate(-240.914 -290.322)" fill="#505050"/>
                <path id="Path_66" data-name="Path 66" d="M254.349,293.824l-6.515-3.543a.464.464,0,0,0-.459.01l-6.253,3.748a.462.462,0,0,0,.007.8l6.123,3.525a.463.463,0,0,0,.458,0l6.646-3.729A.463.463,0,0,0,254.349,293.824Z" transform="translate(-240.896 -290.225)" fill="#626365"/>
              </g>
              <g id="Group_36" data-name="Group 36" transform="translate(42.325 36.07)">
                <path id="Path_67" data-name="Path 67" d="M268.878,286.3l-6.515-3.542a.462.462,0,0,0-.459.01l-6.254,3.748a.462.462,0,0,0,.007.8l6.123,3.524a.463.463,0,0,0,.458,0l6.646-3.73A.463.463,0,0,0,268.878,286.3Z" transform="translate(-255.384 -282.477)" fill="#505050"/>
                <path id="Path_68" data-name="Path 68" d="M268.819,285.979l-6.515-3.542a.462.462,0,0,0-.459.01l-6.253,3.748a.462.462,0,0,0,.007.8l6.123,3.524a.461.461,0,0,0,.458,0l6.646-3.73A.463.463,0,0,0,268.819,285.979Z" transform="translate(-255.366 -282.38)" fill="#626365"/>
              </g>
              <g id="Group_37" data-name="Group 37" transform="translate(51.868 30.218)">
                <path id="Path_69" data-name="Path 69" d="M282.6,277.883l-6.515-3.542a.464.464,0,0,0-.459.01L269.37,278.1a.462.462,0,0,0,.007.8l6.123,3.524a.462.462,0,0,0,.457,0l6.646-3.729A.464.464,0,0,0,282.6,277.883Z" transform="translate(-269.104 -274.064)" fill="#505050"/>
                <path id="Path_70" data-name="Path 70" d="M282.539,277.566l-6.515-3.542a.464.464,0,0,0-.459.01l-6.254,3.748a.462.462,0,0,0,.007.8l6.123,3.524a.461.461,0,0,0,.458,0l6.646-3.729A.464.464,0,0,0,282.539,277.566Z" transform="translate(-269.086 -273.967)" fill="#626365"/>
              </g>
              <g id="Group_38" data-name="Group 38" transform="translate(61.654 24.24)">
                <path id="Path_71" data-name="Path 71" d="M296.668,269.288l-6.515-3.542a.462.462,0,0,0-.459.009L283.44,269.5a.463.463,0,0,0,.007.8l6.123,3.524a.463.463,0,0,0,.457,0l6.646-3.73A.463.463,0,0,0,296.668,269.288Z" transform="translate(-283.174 -265.468)" fill="#505050"/>
                <path id="Path_72" data-name="Path 72" d="M296.609,268.971l-6.515-3.542a.462.462,0,0,0-.459.009l-6.253,3.748a.463.463,0,0,0,.007.8l6.123,3.524a.463.463,0,0,0,.457,0l6.646-3.73A.463.463,0,0,0,296.609,268.971Z" transform="translate(-283.156 -265.372)" fill="#626365"/>
              </g>
              <g id="Group_39" data-name="Group 39" transform="translate(71.744 18.564)">
                <path id="Path_73" data-name="Path 73" d="M311.175,261.128l-6.515-3.543a.464.464,0,0,0-.459.01l-6.254,3.748a.462.462,0,0,0,.007.8l6.123,3.525a.463.463,0,0,0,.458,0l6.646-3.729A.463.463,0,0,0,311.175,261.128Z" transform="translate(-297.681 -257.308)" fill="#505050"/>
                <path id="Path_74" data-name="Path 74" d="M311.116,260.81l-6.515-3.543a.464.464,0,0,0-.459.01l-6.254,3.748a.462.462,0,0,0,.008.8l6.123,3.525a.463.463,0,0,0,.458,0l6.645-3.729A.463.463,0,0,0,311.116,260.81Z" transform="translate(-297.663 -257.211)" fill="#626365"/>
              </g>
              <g id="Group_40" data-name="Group 40" transform="translate(102.89 22.148)">
                <path id="Path_75" data-name="Path 75" d="M355.955,266.28l-6.515-3.543a.464.464,0,0,0-.459.01l-6.254,3.748a.462.462,0,0,0,.008.8l6.123,3.525a.463.463,0,0,0,.458,0l6.645-3.729A.463.463,0,0,0,355.955,266.28Z" transform="translate(-342.461 -262.461)" fill="#505050"/>
                <path id="Path_76" data-name="Path 76" d="M355.9,265.964l-6.514-3.543a.464.464,0,0,0-.459.01l-6.254,3.748a.463.463,0,0,0,.007.8L348.8,270.5a.463.463,0,0,0,.458,0l6.645-3.729A.463.463,0,0,0,355.9,265.964Z" transform="translate(-342.443 -262.365)" fill="#626365"/>
              </g>
              <g id="Group_41" data-name="Group 41" transform="translate(111.319 16.554)">
                <path id="Path_77" data-name="Path 77" d="M368.074,258.237l-6.515-3.543a.464.464,0,0,0-.459.01l-6.254,3.748a.462.462,0,0,0,.007.8l6.123,3.525a.462.462,0,0,0,.457,0l6.646-3.729A.463.463,0,0,0,368.074,258.237Z" transform="translate(-354.58 -254.418)" fill="#505050"/>
                <path id="Path_78" data-name="Path 78" d="M368.015,257.921l-6.515-3.543a.464.464,0,0,0-.459.01l-6.254,3.748a.462.462,0,0,0,.007.8l6.123,3.525a.463.463,0,0,0,.458,0l6.646-3.729A.463.463,0,0,0,368.015,257.921Z" transform="translate(-354.562 -254.321)" fill="#626365"/>
              </g>
              <g id="Group_42" data-name="Group 42" transform="translate(122.529 21.421)">
                <path id="Path_79" data-name="Path 79" d="M384.191,265.235l-6.514-3.542a.46.46,0,0,0-.459.01l-6.254,3.748a.463.463,0,0,0,.007.8l6.123,3.524a.463.463,0,0,0,.458,0l6.645-3.73A.463.463,0,0,0,384.191,265.235Z" transform="translate(-370.698 -261.415)" fill="#505050"/>
                <path id="Path_80" data-name="Path 80" d="M384.132,264.918l-6.515-3.542a.46.46,0,0,0-.459.01l-6.254,3.748a.463.463,0,0,0,.007.8l6.123,3.524a.462.462,0,0,0,.457,0l6.646-3.73A.463.463,0,0,0,384.132,264.918Z" transform="translate(-370.679 -261.319)" fill="#626365"/>
              </g>
              <g id="Group_43" data-name="Group 43" transform="translate(81.025 45.593)">
                <path id="Path_81" data-name="Path 81" d="M324.519,299.988,318,296.445a.464.464,0,0,0-.459.01l-6.254,3.748a.463.463,0,0,0,.007.8l6.123,3.525a.463.463,0,0,0,.458,0l6.645-3.729A.463.463,0,0,0,324.519,299.988Z" transform="translate(-311.026 -296.169)" fill="#505050"/>
                <path id="Path_82" data-name="Path 82" d="M324.46,299.671l-6.514-3.542a.465.465,0,0,0-.46.01l-6.254,3.748a.462.462,0,0,0,.007.8l6.123,3.525a.463.463,0,0,0,.458,0l6.645-3.729A.463.463,0,0,0,324.46,299.671Z" transform="translate(-311.007 -296.072)" fill="#626365"/>
              </g>
              <g id="Group_44" data-name="Group 44" transform="translate(90.372 40.018)">
                <path id="Path_83" data-name="Path 83" d="M337.957,291.974l-6.514-3.542a.464.464,0,0,0-.46.009l-6.253,3.748a.463.463,0,0,0,.007.8l6.123,3.524a.465.465,0,0,0,.458,0l6.645-3.73A.463.463,0,0,0,337.957,291.974Z" transform="translate(-324.463 -288.154)" fill="#505050"/>
                <path id="Path_84" data-name="Path 84" d="M337.9,291.657l-6.515-3.542a.462.462,0,0,0-.459.009l-6.253,3.748a.463.463,0,0,0,.007.8l6.123,3.524a.463.463,0,0,0,.457,0l6.646-3.73A.463.463,0,0,0,337.9,291.657Z" transform="translate(-324.445 -288.058)" fill="#626365"/>
              </g>
              <g id="Group_45" data-name="Group 45" transform="translate(99.229 34.677)">
                <path id="Path_85" data-name="Path 85" d="M350.692,284.294l-6.514-3.543a.465.465,0,0,0-.46.01l-6.254,3.748a.463.463,0,0,0,.007.8l6.123,3.524a.463.463,0,0,0,.458,0L350.7,285.1A.463.463,0,0,0,350.692,284.294Z" transform="translate(-337.198 -280.475)" fill="#505050"/>
                <path id="Path_86" data-name="Path 86" d="M350.633,283.978l-6.515-3.543a.464.464,0,0,0-.459.01l-6.254,3.748a.463.463,0,0,0,.007.8l6.123,3.524a.462.462,0,0,0,.457,0l6.646-3.729A.463.463,0,0,0,350.633,283.978Z" transform="translate(-337.18 -280.378)" fill="#626365"/>
              </g>
              <g id="Group_46" data-name="Group 46" transform="translate(54.302 71.6)">
                <path id="Path_87" data-name="Path 87" d="M286.1,337.38l-6.515-3.542a.462.462,0,0,0-.459.009l-6.254,3.748a.463.463,0,0,0,.007.8L279,341.917a.462.462,0,0,0,.457,0l6.646-3.73A.463.463,0,0,0,286.1,337.38Z" transform="translate(-272.603 -333.56)" fill="#505050"/>
                <path id="Path_88" data-name="Path 88" d="M286.038,337.063l-6.515-3.542a.462.462,0,0,0-.459.009l-6.254,3.748a.463.463,0,0,0,.007.8l6.123,3.524a.463.463,0,0,0,.458,0l6.646-3.73A.463.463,0,0,0,286.038,337.063Z" transform="translate(-272.585 -333.464)" fill="#626365"/>
              </g>
              <g id="Group_47" data-name="Group 47" transform="translate(104.413 43.114)">
                <path id="Path_89" data-name="Path 89" d="M358.145,296.423l-6.515-3.543a.464.464,0,0,0-.459.01l-6.254,3.748a.462.462,0,0,0,.007.8l6.123,3.525a.462.462,0,0,0,.457,0l6.646-3.729A.463.463,0,0,0,358.145,296.423Z" transform="translate(-344.651 -292.604)" fill="#505050"/>
                <path id="Path_90" data-name="Path 90" d="M358.086,296.107l-6.515-3.543a.464.464,0,0,0-.459.01l-6.254,3.748a.462.462,0,0,0,.007.8l6.123,3.525a.462.462,0,0,0,.457,0l6.646-3.729A.463.463,0,0,0,358.086,296.107Z" transform="translate(-344.633 -292.507)" fill="#626365"/>
              </g>
              <g id="Group_48" data-name="Group 48" transform="translate(113.668 37.763)">
                <path id="Path_91" data-name="Path 91" d="M371.452,288.73l-6.515-3.543a.464.464,0,0,0-.459.01l-6.253,3.748a.463.463,0,0,0,.007.8l6.123,3.524a.463.463,0,0,0,.458,0l6.646-3.729A.463.463,0,0,0,371.452,288.73Z" transform="translate(-357.958 -284.911)" fill="#505050"/>
                <path id="Path_92" data-name="Path 92" d="M371.393,288.414l-6.515-3.543a.464.464,0,0,0-.459.01l-6.254,3.748a.463.463,0,0,0,.007.8l6.123,3.524a.463.463,0,0,0,.458,0l6.646-3.729A.463.463,0,0,0,371.393,288.414Z" transform="translate(-357.94 -284.814)" fill="#626365"/>
              </g>
              <g id="Group_49" data-name="Group 49" transform="translate(123.31 31.693)">
                <path id="Path_93" data-name="Path 93" d="M385.315,280l-6.515-3.542a.462.462,0,0,0-.459.009l-6.254,3.748a.463.463,0,0,0,.007.8l6.123,3.524a.465.465,0,0,0,.458,0l6.645-3.73A.463.463,0,0,0,385.315,280Z" transform="translate(-371.821 -276.184)" fill="#505050"/>
                <path id="Path_94" data-name="Path 94" d="M385.255,279.687l-6.514-3.542a.462.462,0,0,0-.459.009l-6.254,3.748a.463.463,0,0,0,.007.8l6.123,3.524a.465.465,0,0,0,.458,0l6.645-3.73A.463.463,0,0,0,385.255,279.687Z" transform="translate(-371.803 -276.088)" fill="#626365"/>
              </g>
              <g id="Group_50" data-name="Group 50" transform="translate(27.318 74.944)">
                <path id="Path_95" data-name="Path 95" d="M251.014,342.3l-6.573-3.664a.194.194,0,0,0-.19,0l-10.363,5.838a.2.2,0,0,0,0,.338l6.521,3.759a.194.194,0,0,0,.193,0l10.414-5.933A.2.2,0,0,0,251.014,342.3Z" transform="translate(-233.789 -338.374)" fill="#505050"/>
                <path id="Path_96" data-name="Path 96" d="M251.015,341.961l-6.573-3.664a.194.194,0,0,0-.19,0l-10.363,5.838a.194.194,0,0,0,0,.338l6.521,3.759a.194.194,0,0,0,.193,0l10.414-5.933A.194.194,0,0,0,251.015,341.961Z" transform="translate(-233.79 -338.272)" fill="#626365"/>
              </g>
              <g id="Group_51" data-name="Group 51" transform="translate(9.233 64.623)">
                <path id="Path_97" data-name="Path 97" d="M225.013,327.456l-6.573-3.664a.2.2,0,0,0-.19,0l-10.363,5.838a.194.194,0,0,0,0,.337l6.521,3.759a.193.193,0,0,0,.193,0l10.415-5.933A.2.2,0,0,0,225.013,327.456Z" transform="translate(-207.788 -323.534)" fill="#505050"/>
                <path id="Path_98" data-name="Path 98" d="M225.014,327.121l-6.573-3.664a.194.194,0,0,0-.19,0l-10.363,5.838a.2.2,0,0,0,0,.338l6.521,3.759a.193.193,0,0,0,.193,0l10.415-5.933A.2.2,0,0,0,225.014,327.121Z" transform="translate(-207.789 -323.432)" fill="#626365"/>
              </g>
              <g id="Group_52" data-name="Group 52" transform="translate(0 59.21)">
                <path id="Path_99" data-name="Path 99" d="M211.737,319.674l-6.572-3.664a.2.2,0,0,0-.191,0l-10.363,5.838a.2.2,0,0,0,0,.338l6.521,3.759a.194.194,0,0,0,.193,0l10.414-5.933A.2.2,0,0,0,211.737,319.674Z" transform="translate(-194.513 -315.752)" fill="#505050"/>
                <path id="Path_100" data-name="Path 100" d="M211.738,319.339l-6.572-3.664a.194.194,0,0,0-.19,0l-10.363,5.838a.2.2,0,0,0,0,.338l6.521,3.759a.194.194,0,0,0,.193,0l10.415-5.933A.2.2,0,0,0,211.738,319.339Z" transform="translate(-194.513 -315.65)" fill="#626365"/>
              </g>
              <g id="Group_53" data-name="Group 53" transform="translate(18.065 67.772)">
                <path id="Path_101" data-name="Path 101" d="M237.711,334.9l-6.573-3.665a.194.194,0,0,0-.19,0l-10.363,5.838a.194.194,0,0,0,0,.337l6.521,3.76a.2.2,0,0,0,.193,0l10.414-5.933A.194.194,0,0,0,237.711,334.9Z" transform="translate(-220.486 -328.95)" fill="#505050"/>
                <path id="Path_102" data-name="Path 102" d="M242.811,331.985l-6.573-3.664a.194.194,0,0,0-.19,0l-10.363,5.838a.2.2,0,0,0,0,.338l6.521,3.759a.193.193,0,0,0,.193,0l10.415-5.933A.194.194,0,0,0,242.811,331.985Z" transform="translate(-222.039 -328.063)" fill="#505050"/>
                <path id="Path_103" data-name="Path 103" d="M241.259,331.65l-6.573-3.665a.194.194,0,0,0-.19,0l-10.363,5.838c-.017.009-.013.029-.024.042l-3.523,1.984a.194.194,0,0,0,0,.337l6.521,3.76a.194.194,0,0,0,.193,0l10.414-5.932s0-.006,0-.008l3.542-2.018A.2.2,0,0,0,241.259,331.65Z" transform="translate(-220.487 -327.961)" fill="#626365"/>
              </g>
              <g id="Group_54" data-name="Group 54" transform="translate(109.537 27.458)">
                <path id="Path_104" data-name="Path 104" d="M369.129,273.752l-6.715-3.4a.2.2,0,0,0-.19.008l-10.119,6.25a.194.194,0,0,0,.012.337l6.667,3.494a.193.193,0,0,0,.193-.008l10.168-6.347A.194.194,0,0,0,369.129,273.752Z" transform="translate(-352.005 -270.101)" fill="#505050"/>
                <path id="Path_105" data-name="Path 105" d="M369.117,273.417l-6.715-3.4a.193.193,0,0,0-.19.008l-10.12,6.249a.194.194,0,0,0,.012.337l6.667,3.494a.194.194,0,0,0,.193-.007l10.168-6.347A.194.194,0,0,0,369.117,273.417Z" transform="translate(-352.001 -269.999)" fill="#626365"/>
              </g>
              <g id="Group_55" data-name="Group 55" transform="translate(100.165)">
                <path id="Path_106" data-name="Path 106" d="M355.749,234.545l-6.572-3.665a.194.194,0,0,0-.19,0l-10.363,5.838a.194.194,0,0,0,0,.337l6.521,3.76a.2.2,0,0,0,.193,0l10.415-5.933A.194.194,0,0,0,355.749,234.545Z" transform="translate(-338.525 -230.623)" fill="#505050"/>
                <path id="Path_107" data-name="Path 107" d="M355.75,234.21l-6.572-3.665a.194.194,0,0,0-.19,0l-10.363,5.838a.194.194,0,0,0,0,.337l6.521,3.76a.2.2,0,0,0,.193,0l10.415-5.933A.194.194,0,0,0,355.75,234.21Z" transform="translate(-338.525 -230.521)" fill="#626365"/>
              </g>
              <g id="Group_56" data-name="Group 56" transform="translate(108.8 5.719)">
                <path id="Path_108" data-name="Path 108" d="M368.165,242.768l-6.572-3.665a.194.194,0,0,0-.19,0l-10.363,5.838a.194.194,0,0,0,0,.337l6.521,3.76a.2.2,0,0,0,.193,0l10.415-5.933A.2.2,0,0,0,368.165,242.768Z" transform="translate(-350.941 -238.846)" fill="#505050"/>
                <path id="Path_109" data-name="Path 109" d="M368.166,242.433l-6.572-3.665a.194.194,0,0,0-.19,0l-10.363,5.838a.194.194,0,0,0,0,.337l6.521,3.76a.194.194,0,0,0,.193,0l10.415-5.933A.194.194,0,0,0,368.166,242.433Z" transform="translate(-350.941 -238.744)" fill="#626365"/>
              </g>
              <g id="Group_57" data-name="Group 57" transform="translate(64.153 48.647)">
                <path id="Path_110" data-name="Path 110" d="M330.339,304.77l-6.382-3.713-36.921,20.965a.566.566,0,0,0,0,.984l5.506,3.129a1.688,1.688,0,0,0,1.673,0l36.122-20.675A.4.4,0,0,0,330.339,304.77Z" transform="translate(-286.749 -300.644)" fill="#505050"/>
                <path id="Path_111" data-name="Path 111" d="M330.4,304.209l-6.436-3.746-36.921,20.966a.566.566,0,0,0,0,.984l5.506,3.128a1.688,1.688,0,0,0,1.673,0l36.177-20.707A.36.36,0,0,0,330.4,304.209Z" transform="translate(-286.75 -300.463)" fill="#626365"/>
              </g>
              <g id="Group_58" data-name="Group 58" transform="translate(120.681 10.747)">
                <path id="Path_112" data-name="Path 112" d="M388.557,253.713l-12.671-7.161a.553.553,0,0,0-.55,0l-7.037,4.087a.553.553,0,0,0,.017.966l3.949,2.112a1.766,1.766,0,0,0,1.719-.03l2.157-1.253a1.18,1.18,0,0,1,1.2.01l7.7,4.655a.552.552,0,0,0,.638-.047l2.956-2.434A.554.554,0,0,0,388.557,253.713Z" transform="translate(-368.023 -246.127)" fill="#505050"/>
                <path id="Path_113" data-name="Path 113" d="M388.559,253.206l-12.672-7.161a.553.553,0,0,0-.55,0l-7.037,4.087a.553.553,0,0,0,.017.966l3.949,2.112a1.764,1.764,0,0,0,1.719-.03l2.156-1.253a1.179,1.179,0,0,1,1.2.011l7.7,4.654a.552.552,0,0,0,.638-.047l2.956-2.434A.554.554,0,0,0,388.559,253.206Z" transform="translate(-368.023 -245.973)" fill="#626365"/>
              </g>
            </g>
          </g>
        </g>
      </g>
      <g id="lock" transform="translate(195.414 108.075)">
        <path id="Path_114" data-name="Path 114" d="M304.255,163.537a5.848,5.848,0,0,0-.653-.428l-5.575-3.151v-12a16.006,16.006,0,0,0-7.314-13.513,15.373,15.373,0,0,0-4.992-3.1c-3.895-1.463-8.833-1.617-14.773,1.483,0,0-13.161,5.411-13.987,27.538l-.039.019v18.235l-5.4,3.017c-9.074,3.547-8.4,10.4-8.4,10.4V241.5a3.287,3.287,0,0,0,1.685,2.857l9.185,5.191c5.925,4.6,12.552-.95,12.552-.95h0l41.24-23.325a4.189,4.189,0,0,0,2.146-3.641l-.015-47.371S311.286,167.475,304.255,163.537Zm-15.6-21.625a10.98,10.98,0,0,1,.9,4.833l-.035,13.657-21.986,12.282V156.668s.977-12.349,10.118-17.311a9.718,9.718,0,0,1,8.268-.458A7.578,7.578,0,0,1,288.652,141.912Z" transform="translate(-243.112 -130.332)" fill="#abaaaf" opacity="0.2"/>
        <g id="Group_62" data-name="Group 62" transform="translate(8.044 1.509)">
          <path id="Path_115" data-name="Path 115" d="M262.9,199.212l41.864-24.17a5.7,5.7,0,0,1,5.7,0l6.34,3.661a5.7,5.7,0,0,1,0,9.876l-41.864,24.17a5.7,5.7,0,0,1-5.7,0l-6.34-3.66A5.7,5.7,0,0,1,262.9,199.212Z" transform="translate(-256.311 -145.221)" fill="#d2d4d5"/>
          <path id="Path_116" data-name="Path 116" d="M346.228,191.494s1.637-8.252-7.776-11.974l-1.232-.661-1.265,5.72,1.216,8.2Z" transform="translate(-279.423 -146.616)" fill="#89b2e2"/>
          <path id="Path_117" data-name="Path 117" d="M281.3,223.489c-.577-.32-7.686-2.69-7.942-2.434s-3.522,4.136-3.522,4.136l5.252,8.033,9.031-4.868Z" transform="translate(-259.293 -159.458)" fill="#89b2e2"/>
          <path id="Path_118" data-name="Path 118" d="M282.874,304.28s-6.628,5.673-12.552.97l4.715-4.123,1.238-1.239,1.58,1.324Z" transform="translate(-259.44 -183.466)" fill="#5682c4"/>
          <path id="Path_119" data-name="Path 119" d="M254.688,218.467s-.675-7,8.4-10.624l-.658,6.967v1.751l-2.052.182Z" transform="translate(-254.677 -155.441)" fill="#89b2e2"/>
          <path id="Path_120" data-name="Path 120" d="M322.184,191.426l-41.9,24.189a4.3,4.3,0,0,0-2.147,3.719V267.75a4.294,4.294,0,0,0,6.442,3.718l41.912-24.215a4.3,4.3,0,0,0,2.146-3.72l-.015-48.389A4.294,4.294,0,0,0,322.184,191.426Z" transform="translate(-261.821 -150.265)" fill="#78a1de"/>
          <path id="Path_121" data-name="Path 121" d="M269.314,224.232l-9.568-5.513a3.37,3.37,0,0,0-5.052,2.921v50.536a3.371,3.371,0,0,0,1.685,2.919l9.568,5.524A3.37,3.37,0,0,0,271,277.7V227.151A3.369,3.369,0,0,0,269.314,224.232Z" transform="translate(-254.682 -158.614)" fill="#5682c4"/>
          <path id="Path_122" data-name="Path 122" d="M315.191,177.863l-4.924-2.843a5.544,5.544,0,0,0-5.52-.014l-39.631,22.617c-3.72,2.123-5.406,6.516-1.7,8.654l6.834,3.937a5.546,5.546,0,0,0,5.541,0l39.4-22.746A5.544,5.544,0,0,0,315.191,177.863Z" transform="translate(-256.706 -145.221)" fill="#89b2e2"/>
          <path id="Path_123" data-name="Path 123" d="M308.364,240.447c.954-3.622,4.316-7.724,6.883-8.281,3.221-.7,4.734.329,4.684,5.559a9.652,9.652,0,0,1-2.377,5.484l1.9,10.646-9.009,4.953.778-12.02C308.126,246.615,307.6,243.348,308.364,240.447Z" transform="translate(-270.928 -162.787)" fill="#626365"/>
          <g id="Group_61" data-name="Group 61" transform="translate(13.811)">
            <path id="Path_124" data-name="Path 124" d="M274.533,163.195V190.2l3.069,2.007,4.76-2.735V159.752s1-13.671,10.466-19.179a9.526,9.526,0,0,1,9.874.138,8.435,8.435,0,0,1,3.561,3.62,11.428,11.428,0,0,1,.9,4.938l-.059,23.527,1.77,1.259,5.056-3.206V150.113c0-7.279-4.111-14.084-10.6-16.583-3.895-1.5-8.832-1.653-14.773,1.514,0,0-13.16,5.528-13.986,28.131Z" transform="translate(-274.533 -132.501)" fill="#78a1de"/>
            <path id="Path_125" data-name="Path 125" d="M278.988,163.326c.789-20.827,13.488-25.92,13.488-25.92,5.737-2.92,10.5-2.785,14.258-1.4a16.153,16.153,0,0,1,10.249,15.281v19.483l-6.578,4,.051-24.238a9.664,9.664,0,0,0-1.048-4.4,7.926,7.926,0,0,0-3.255-3.489,9.623,9.623,0,0,0-9.543-.143c-9.141,5.069-10.117,17.683-10.117,17.683v28.458l-7.541,4.353V163.348Z" transform="translate(-275.878 -133.279)" fill="#a3c4ea"/>
          </g>
        </g>
      </g>
      <g id="key" transform="translate(247.416 274.359)">
        <path id="Path_126" data-name="Path 126" d="M389.677,386.551c.738-7.222-7.919-12.089-17.575-12.089s-18.592,5.166-17.375,12.089v.006a7.056,7.056,0,0,0,0,2.507,7.265,7.265,0,0,0,.5,1.608l-22.071,12.815-3.252,1.885-9.206,5.346v2.513l7.87,4.538,2.91-1.685,7.648,4.374,2.859-1.651,1.23-.71v-2.514l-3.24-1.9.414-.236,1.544.819,1.456-.837,1.227-.708V411.5l4.791,2.772,1.662-.99,1.122-.707v-2.513l-5-3.034,16.6-9.584a26.851,26.851,0,0,0,8.411,1.278c9.645,0,16.926-4.349,17.474-9.655a8.1,8.1,0,0,0-.067-2.151C389.63,386.792,389.664,386.673,389.677,386.551Zm-17.545-6.295c4.9,0,9.36,2.124,10.283,5.417-.866,2.807-4.944,5.006-10.224,5.006-5.413,0-9.363-2.33-10.26-5.211C362.889,382.385,367.363,380.256,372.132,380.256Z" transform="translate(-318.735 -370.947)" fill="#abaaaf" opacity="0.2"/>
        <g id="Group_63" data-name="Group 63">
          <path id="Path_127" data-name="Path 127" d="M369.285,373.021c-9.646,0-18.592,5.166-17.376,12.089a8.134,8.134,0,0,0,1.595,3.484l-23.169,13.452-3.252,1.885-9.206,5.347,7.869,4.538,2.91-1.685,7.648,4.373,2.859-1.65,1.23-.711-5.415-3.175,2.589-1.473,1.544.819,1.456-.837,1.227-.709-2.8-1.64,1.086-.575,6.5,3.761,1.662-.99,1.123-.707-7.124-4.321,18.726-10.81a26.856,26.856,0,0,0,8.411,1.278c9.645,0,16.926-4.348,17.475-9.655C387.6,377.888,378.94,373.021,369.285,373.021Zm10.473,10.473c-.319,3.151-4.648,5.745-10.383,5.745s-9.845-2.624-10.393-5.745c-.728-4.12,4.6-7.192,10.333-7.192S380.2,379.2,379.758,383.494Z" transform="translate(-317.878 -370.508)" fill="#b67b47"/>
          <path id="Path_128" data-name="Path 128" d="M369.285,369.408c-9.646,0-18.592,5.166-17.376,12.088a8.127,8.127,0,0,0,1.595,3.484l-23.169,13.452-3.252,1.886-9.206,5.346,7.869,4.538,2.91-1.684,7.648,4.373,2.859-1.651,1.23-.71-5.415-3.175,2.589-1.473,1.544.819,1.456-.838,1.227-.708-2.8-1.64,1.086-.575,6.5,3.761,1.662-.991,1.123-.706-7.124-4.322,18.726-10.809a26.854,26.854,0,0,0,8.411,1.278c9.645,0,16.926-4.349,17.475-9.655C387.6,374.275,378.94,369.408,369.285,369.408Zm10.473,10.473c-.319,3.152-4.648,5.745-10.383,5.745s-9.845-2.623-10.393-5.745c-.728-4.12,4.6-7.191,10.333-7.191S380.2,375.592,379.758,379.881Z" transform="translate(-317.878 -369.408)" fill="#ddc357"/>
          <path id="Path_129" data-name="Path 129" d="M317.878,421.535v2.513l7.87,4.538v-2.513Z" transform="translate(-317.878 -385.279)" fill="#a36a40"/>
          <path id="Path_130" data-name="Path 130" d="M333.376,428.152v-2.513l7.648,4.374v2.513Z" transform="translate(-322.596 -386.529)" fill="#a36a40"/>
          <path id="Path_131" data-name="Path 131" d="M348.461,428.533v2.513l-4.089,2.361v-2.513Z" transform="translate(-325.944 -387.41)" fill="#cc8a58"/>
          <path id="Path_132" data-name="Path 132" d="M346.189,421.85v2.513l1.544.819v-2.513Z" transform="translate(-326.497 -385.375)" fill="#a36a40"/>
          <path id="Path_133" data-name="Path 133" d="M351.092,420.8v2.513l-2.683,1.546V422.35Z" transform="translate(-327.173 -385.057)" fill="#cc8a58"/>
          <path id="Path_134" data-name="Path 134" d="M359.154,422.284V424.8l2.784-1.7v-2.513Z" transform="translate(-330.445 -384.99)" fill="#cc8a58"/>
          <path id="Path_135" data-name="Path 135" d="M371.642,398.832v2.513l-16.6,9.584-2.123-1.288Z" transform="translate(-328.546 -378.367)" fill="#a36a40"/>
        </g>
      </g>
      <g id="password" transform="translate(120.615 130.408)">
        <path id="Path_136" data-name="Path 136" d="M154.677,182.831l-15.892,9.175,50.594-27.99-4.489-1.575L135.581,190.9l-.013,18.359,4.469,1.379,46.452-27.811V164.449Z" transform="translate(-135.569 -162.442)" fill="#686868" opacity="0.2"/>
        <g id="Group_66" data-name="Group 66" transform="translate(4.469 1.35)">
          <g id="Group_64" data-name="Group 64">
            <path id="Path_137" data-name="Path 137" d="M162.921,184.757,195.381,166v18.756l-48.688,28.094.013-18.732Z" transform="translate(-143.424 -164.875)" fill="#ddc357"/>
            <path id="Path_138" data-name="Path 138" d="M145.275,205.935l-3.269-1.126-.013,18.732,3.269,1.126Z" transform="translate(-141.994 -176.691)" fill="#b67b47"/>
            <path id="Path_139" data-name="Path 139" d="M142.012,192.5l48.675-28.118,3.269,1.126-48.675,28.118Z" transform="translate(-141.999 -164.382)" fill="#cc8a58"/>
          </g>
          <g id="Group_65" data-name="Group 65" transform="translate(8.514 10.901)">
            <path id="Path_140" data-name="Path 140" d="M162.667,211.088l-2.354-1.418,2.354-1.419a.539.539,0,0,0-.132-1.022l-.661-.2a.933.933,0,0,0-.734.091l-1.776,1.07v-2.814c0-.557-.428-.906-.771-.627l-.479.391a.812.812,0,0,0-.257.626v2.423l-1.775-1.069a.933.933,0,0,0-.734-.091l-.661.2a.539.539,0,0,0-.132,1.022l2.354,1.419-2.354,1.418a.537.537,0,0,0,.119,1.018l.648.208a.93.93,0,0,0,.748-.087l1.788-1.077v2.758c0,.557.428.906.771.627l.482-.392a.81.81,0,0,0,.257-.627V211.15l1.789,1.077a.93.93,0,0,0,.748.087l.648-.208A.537.537,0,0,0,162.667,211.088Z" transform="translate(-154.235 -187.544)" fill="#f2f3f5"/>
            <path id="Path_141" data-name="Path 141" d="M177.083,202.894l-2.354-1.419,2.354-1.418a.538.538,0,0,0-.131-1.022l-.661-.2a.936.936,0,0,0-.734.091L173.779,200v-2.815c0-.557-.428-.9-.771-.626l-.479.391a.811.811,0,0,0-.257.626V200l-1.775-1.07a.936.936,0,0,0-.734-.091l-.661.2a.539.539,0,0,0-.132,1.022l2.354,1.418-2.354,1.419a.537.537,0,0,0,.119,1.018l.648.208a.933.933,0,0,0,.748-.087l1.788-1.077v2.758c0,.557.428.906.771.627l.482-.392a.813.813,0,0,0,.257-.627v-2.367l1.789,1.078a.933.933,0,0,0,.748.087l.648-.208A.537.537,0,0,0,177.083,202.894Z" transform="translate(-158.625 -185.049)" fill="#f2f3f5"/>
            <path id="Path_142" data-name="Path 142" d="M191.347,194.7l-2.354-1.418,2.354-1.418a.539.539,0,0,0-.132-1.023l-.661-.2a.933.933,0,0,0-.734.091l-1.776,1.07v-2.814c0-.557-.428-.9-.771-.626l-.48.39a.814.814,0,0,0-.257.627V191.8l-1.775-1.07a.933.933,0,0,0-.734-.091l-.661.2a.539.539,0,0,0-.132,1.023l2.354,1.418-2.354,1.418a.538.538,0,0,0,.119,1.019l.648.208a.936.936,0,0,0,.748-.087l1.788-1.077v2.758c0,.557.428.9.771.627l.482-.392a.811.811,0,0,0,.257-.627v-2.366l1.789,1.078a.936.936,0,0,0,.748.087l.648-.208A.538.538,0,0,0,191.347,194.7Z" transform="translate(-162.968 -182.554)" fill="#f2f3f5"/>
            <path id="Path_143" data-name="Path 143" d="M205.611,186.492l-2.354-1.418,2.354-1.418a.539.539,0,0,0-.132-1.023l-.661-.2a.933.933,0,0,0-.734.091l-1.776,1.07V180.78c0-.557-.428-.9-.771-.626l-.48.391a.813.813,0,0,0-.257.626v2.423l-1.776-1.07a.932.932,0,0,0-.734-.091l-.661.2a.539.539,0,0,0-.131,1.023l2.354,1.418-2.354,1.418a.538.538,0,0,0,.118,1.019l.648.208a.936.936,0,0,0,.748-.087l1.788-1.077v2.758c0,.557.428.9.771.627l.481-.392a.814.814,0,0,0,.257-.627v-2.367l1.789,1.078a.936.936,0,0,0,.748.087l.648-.208A.538.538,0,0,0,205.611,186.492Z" transform="translate(-167.311 -180.056)" fill="#f2f3f5"/>
          </g>
        </g>
      </g>
    </g>
  </g>
</svg>
