<svg xmlns="http://www.w3.org/2000/svg" width="32" height="32" viewBox="0 0 32 32">
  <g id="Group_12703" data-name="Group 12703" transform="translate(-279 -231)">
    <g id="_Icons_13_Box" data-name="_Icons / 13 Box" transform="translate(279 231)">
      <path id="_13_Box" data-name="13 Box" d="M11.147,22.332a2.669,2.669,0,0,1-1.047-.213L1.594,18.473A2.655,2.655,0,0,1,0,16.028V6.311A2.729,2.729,0,0,1,1.594,3.866L10.1.219a2.689,2.689,0,0,1,2.126,0L20.7,3.866a2.629,2.629,0,0,1,1.064.818,2.671,2.671,0,0,1,.531,1.627v9.717A2.654,2.654,0,0,1,20.7,18.473l-8.505,3.646A2.664,2.664,0,0,1,11.147,22.332Zm.016-19.667L2.658,6.311v9.717l8.505,3.646V10.043a1.058,1.058,0,0,1,.643-1L18.95,6,11.163,2.665Z" transform="translate(4.837 5.096)" fill="#7a797e"/>
    </g>
  </g>
</svg>
