<svg xmlns="http://www.w3.org/2000/svg" width="44.893" height="38" viewBox="0 0 44.893 38">
  <g id="mockups" transform="translate(0 -39)">
    <path id="Path_18304" data-name="Path 18304" d="M23.33,76.116a.884.884,0,1,1-.884-.884A.885.885,0,0,1,23.33,76.116ZM7.037,54.377a.884.884,0,0,0,0,1.767h1.8v8.837a.884.884,0,1,0,1.767,0V56.144h1.8a.884.884,0,0,0,0-1.767Zm30.61-6.893A3.712,3.712,0,1,1,33.935,51.2,3.716,3.716,0,0,1,37.647,47.484ZM35.7,51.2a1.944,1.944,0,1,0,1.944-1.944A1.946,1.946,0,0,0,35.7,51.2ZM35.172,77H26.423a.885.885,0,0,1-.882-.943.9.9,0,0,1,.913-.825h7.834V73.465h-6.54A2.651,2.651,0,0,1,25.1,70.814v-2.3a2.651,2.651,0,0,1,2.651-2.651h6.54V62.153h-12.2a.884.884,0,0,1-.884-.884V44.833a.884.884,0,0,1,.884-.884h12.2v-2.3a.884.884,0,0,0-.884-.884H11.488a.884.884,0,0,0-.884.884V50.4h7.953a.884.884,0,0,1,.884.884V68.958a.884.884,0,0,1-.884.884H10.6v5.391h7.834a.9.9,0,0,1,.913.825A.885.885,0,0,1,18.47,77H9.721a.884.884,0,0,1-.884-.884V69.842H.884A.884.884,0,0,1,0,68.958V51.284A.884.884,0,0,1,.884,50.4H8.837V41.651A2.651,2.651,0,0,1,11.488,39H33.4a2.651,2.651,0,0,1,2.651,2.651v2.3h7.953a.884.884,0,0,1,.884.884V61.27a.884.884,0,0,1-.884.884H36.056v3.712h2.3A2.651,2.651,0,0,1,41,68.516v2.3a2.651,2.651,0,0,1-2.651,2.651h-2.3v2.651A.884.884,0,0,1,35.172,77Zm-17.5-24.833H1.767V68.074H17.674ZM38.353,67.633h-10.6a.885.885,0,0,0-.884.884v2.3a.885.885,0,0,0,.884.884h10.6a.885.885,0,0,0,.884-.884v-2.3A.885.885,0,0,0,38.353,67.633ZM22.977,60.386H36.665L28.507,52.76a2.658,2.658,0,0,0-3.621,0l-1.909,1.785Zm20.149-14.67H22.977v6.409l.7-.656a4.431,4.431,0,0,1,6.035,0l9.54,8.917h3.872Z" transform="translate(0)"/>
  </g>
</svg>
