<svg xmlns="http://www.w3.org/2000/svg" width="46.082" height="40" viewBox="0 0 46.082 40">
  <g id="paint-brush" transform="translate(0 -33.786)">
    <g id="Group_12732" data-name="Group 12732" transform="translate(17.899 33.786)">
      <g id="Group_12731" data-name="Group 12731">
        <path id="Path_16444" data-name="Path 16444" d="M225.919,34.921a3.86,3.86,0,0,0-2.7-1.135h-.045a3.858,3.858,0,0,0-2.679,1.075L198.872,55.537a9.086,9.086,0,0,1,5.584,4.248,10.219,10.219,0,0,1,.941,2.086L225.98,40.345a3.88,3.88,0,0,0-.062-5.424Z" transform="translate(-198.872 -33.786)"/>
      </g>
    </g>
    <g id="Group_12734" data-name="Group 12734" transform="translate(0 57.95)">
      <g id="Group_12733" data-name="Group 12733">
        <path id="Path_16445" data-name="Path 16445" d="M15.894,302.275q-.163-.007-.326-.007a8.857,8.857,0,0,0-5.111,1.7c-1.78,1.28-2.489,3.119-3.8,4.794C5.022,310.86,2.5,311.887,0,312.588c1.457,3.85,6.869,5.427,10.418,5.512q.191,0,.385,0c4.018,0,8.751-1.494,10.688-5.447C23.618,308.316,21,302.488,15.894,302.275Z" transform="translate(0 -302.268)"/>
      </g>
    </g>
  </g>
</svg>
