<svg id="pdf-icon" xmlns="http://www.w3.org/2000/svg" width="47.738" height="47.738" viewBox="0 0 47.738 47.738">
  <g id="Group_12068" data-name="Group 12068">
    <rect id="Rectangle_2161" data-name="Rectangle 2161" width="47.738" height="47.738" rx="6" fill="#fff8d8"/>
  </g>
  <g id="google-drive-pdf-file" transform="translate(15.276 15.276)">
    <g id="drive-pdf">
      <path id="Path_16414" data-name="Path 16414" d="M7.925,5.347h0a3.543,3.543,0,0,0,.191-.859V4.3a1.491,1.491,0,0,0,0-.955v-.1l-.1-.1h0a.094.094,0,0,1-.1.1,3.884,3.884,0,0,0,0,2.1ZM5.06,11.935a2.087,2.087,0,0,0-.477.286,4.7,4.7,0,0,0-1.241,1.528h0c.573-.1,1.146-.668,1.719-1.814ZM13.844,10.5c-.1-.1-.477-.382-1.814-.382h-.191v.1a5.125,5.125,0,0,0,1.814.477h.286v-.1h0A.094.094,0,0,1,13.844,10.5ZM15.276,0H1.91A1.915,1.915,0,0,0,0,1.91V15.276a1.915,1.915,0,0,0,1.91,1.91H15.276a1.915,1.915,0,0,0,1.91-1.91V1.91A1.915,1.915,0,0,0,15.276,0Zm-1.05,11.266a1.907,1.907,0,0,1-.859.191,6.883,6.883,0,0,1-2.864-.668,15.721,15.721,0,0,0-3.819.764c-.1,0-.1,0-.191.1-1.146,2.005-2.1,2.96-2.864,2.96-.191,0-.286,0-.382-.1l-.477-.286v-.1a.861.861,0,0,1-.1-.477,3.675,3.675,0,0,1,1.814-2.005c.191-.1.477-.286.859-.477.286-.477.573-1.05.955-1.719a20.2,20.2,0,0,0,1.05-2.769h0a4.432,4.432,0,0,1-.191-3.151c.1-.382.382-.764.764-.764h.191a1.357,1.357,0,0,1,.573.191c.668.668.382,2.2,0,3.437v.1a6.9,6.9,0,0,0,1.528,2.482,6.7,6.7,0,0,0,.859.573c.477,0,.859-.1,1.241-.1,1.146,0,1.91.191,2.2.668a1.211,1.211,0,0,1,.1.573A5.848,5.848,0,0,1,14.226,11.266ZM8.02,7.543a19.883,19.883,0,0,1-.955,2.291c-.191.382-.382.668-.573,1.05h.191a14.444,14.444,0,0,1,3.151-.859,1.317,1.317,0,0,1-.382-.286A9.707,9.707,0,0,1,8.02,7.543Z" fill="#ffd400"/>
    </g>
  </g>
</svg>
