<svg xmlns="http://www.w3.org/2000/svg" width="57.333" height="71" viewBox="0 0 57.333 71">
  <g id="Group_16096" data-name="Group 16096" transform="translate(-60 -1720)">
    <g id="Rectangle_17244" data-name="Rectangle 17244" transform="translate(60 1720)" fill="#eee" stroke="#707070" stroke-width="1">
      <rect width="57" height="71" stroke="none"/>
      <rect x="0.5" y="0.5" width="56" height="70" fill="none"/>
    </g>
    <g id="Group_15960" data-name="Group 15960" transform="translate(67.741 1728.748)">
      <g id="Group_15959" data-name="Group 15959" transform="translate(0)">
        <text id="Pending_" data-name="Pending " transform="translate(0.259 57.252)" font-size="8" font-family="OpenSans-Semibold, Open Sans" font-weight="600"><tspan x="0" y="0">Pending </tspan></text>
        <g id="artwork" transform="translate(0.035)">
          <path id="Path_18300" data-name="Path 18300" d="M77.7,128.259v-7.227A1.032,1.032,0,0,0,76.665,120h-35.1a1.032,1.032,0,0,0-1.032,1.032V145.81a1.032,1.032,0,0,0,1.032,1.032H59.114v-2.065H42.6v-4.706l10.29-9.355,8.6,8.6a1.033,1.033,0,0,0,1.392.063l5.516-4.6.516.451,1.36-1.549-1.18-1.032a1.033,1.033,0,0,0-1.342-.017l-5.472,4.558-8.626-8.625a1.032,1.032,0,0,0-1.425-.034L42.6,137.283V122.065H75.633v6.194Zm0,0" transform="translate(-40.531 -120)"/>
          <path id="Path_18301" data-name="Path 18301" d="M184.531,156.13a4.13,4.13,0,1,0,4.13-4.13A4.13,4.13,0,0,0,184.531,156.13Zm6.194,0a2.065,2.065,0,1,1-2.065-2.065A2.065,2.065,0,0,1,190.725,156.13Zm0,0" transform="translate(-165.948 -147.87)"/>
          <path id="Path_18302" data-name="Path 18302" d="M100.879,238.106l3.1-3.1,1.46,1.46-3.1,3.1Zm0,0" transform="translate(-93.091 -220.166)"/>
          <path id="Path_18303" data-name="Path 18303" d="M96.764,185.737a7.991,7.991,0,0,0,7.186,4.439,8.088,8.088,0,0,0,5.678-2.353l.531-.531a4.654,4.654,0,0,0,1.342-3.587,62.452,62.452,0,0,0,17.745-15.21l8.879-11.1a3.34,3.34,0,0,0-4.7-4.693l-11.093,8.881a62.455,62.455,0,0,0-15.21,17.741,4.654,4.654,0,0,0-3.587,1.342l-2.706,2.706a2.074,2.074,0,0,1-1.459.606H97.558a1.033,1.033,0,0,0-.924,1.5ZM123.622,163.2l11.1-8.879a1.274,1.274,0,0,1,1.791,1.791l-8.879,11.1a60.721,60.721,0,0,1-5.758,6.246l-4.492-4.5a60.725,60.725,0,0,1,6.242-5.758Zm-7.64,7.289,4.356,4.357a60.523,60.523,0,0,1-9.31,6.751l-.648-.648c-.077-.091-.139-.19-.225-.276s-.184-.147-.275-.224l-.649-.649a60.5,60.5,0,0,1,6.756-9.311Zm-13.7,14.35,2.706-2.706a2.684,2.684,0,0,1,3.446-.216l.495.494a2.6,2.6,0,0,1-.233,3.418l-.53.531a6.007,6.007,0,0,1-4.221,1.752,5.937,5.937,0,0,1-4.519-2.065,4.155,4.155,0,0,0,2.862-1.21Zm0,0" transform="translate(-89.299 -147.847)"/>
        </g>
      </g>
    </g>
  </g>
</svg>
