<svg id="_Icons_2_Pointer" data-name="_Icons / 2 Pointer" xmlns="http://www.w3.org/2000/svg" width="23" height="23" viewBox="0 0 23 23">
  <path id="_2_Pointer" data-name="2 Pointer" d="M5.753,15.784a.654.654,0,0,1-.555-.305L.926,8.828A5.679,5.679,0,0,1,.032,5.115,5.753,5.753,0,0,1,5.441.009C5.547,0,5.655,0,5.762,0A5.738,5.738,0,0,1,11.5,5.727a5.633,5.633,0,0,1-.92,3.1L6.308,15.479A.654.654,0,0,1,5.753,15.784Zm0-12.325a2.3,2.3,0,1,0,2.3,2.3A2.3,2.3,0,0,0,5.75,3.459Z" transform="translate(5.75 3.605)" fill="#7a797e"/>
</svg>
