<svg id="_Icons_7_Portfolio" data-name="_Icons / 7 Portfolio" xmlns="http://www.w3.org/2000/svg" width="32" height="32" viewBox="0 0 32 32">
  <path id="_7_Portfolio" data-name="7 Portfolio" d="M20.136,22.585H2.722A2.725,2.725,0,0,1,0,19.864V7.347A2.725,2.725,0,0,1,2.722,4.625H5.17V2.993A3,3,0,0,1,8.164,0h6.53a3,3,0,0,1,2.993,2.993V4.625h2.449a2.724,2.724,0,0,1,2.721,2.722V19.864A2.724,2.724,0,0,1,20.136,22.585ZM4.354,11.157a1.088,1.088,0,1,0,0,2.176H18.5a1.088,1.088,0,1,0,0-2.176Zm3.81-8.435a.272.272,0,0,0-.273.272V4.625h7.075V2.993a.272.272,0,0,0-.272-.272Z" transform="translate(4.571 4.571)"/>
</svg>
