<svg xmlns="http://www.w3.org/2000/svg" width="33.375" height="49.999" viewBox="0 0 33.375 49.999">
  <g id="Group_12757" data-name="Group 12757" transform="translate(-1159 -356)">
    <g id="Group_6757" data-name="Group 6757" transform="translate(4833.373 4336)">
      <path id="Path_16058" data-name="Path 16058" d="M203.963,42.891l-4.121-.586L197.3,41.272V39.328A8.282,8.282,0,0,0,200.6,33.5h.042a3.333,3.333,0,0,0,.907-6.54,3.318,3.318,0,0,0-.074-1.938V21.833A5.833,5.833,0,0,0,195.637,16h-6.667a5.833,5.833,0,0,0-5.833,5.833v3.188a3.318,3.318,0,0,0-.074,1.938,3.333,3.333,0,0,0,.907,6.54h.042a8.282,8.282,0,0,0,3.292,5.829v1.979l-2.583,1.24-4.477.954a5.882,5.882,0,0,0-4.572,5.09c0,4.379-.268,12.641.2,14.614A4.173,4.173,0,0,0,179.8,66h2.5c.058,0,9.167-1.916,9.167-1.916V66h1.667V64.088l8.995,1.894A.841.841,0,0,0,202.3,66h2.5a4.171,4.171,0,0,0,4.167-4.167V48.666A5.873,5.873,0,0,0,203.963,42.891ZM192.3,51.852,191.1,48.5h2.4ZM188.971,40.3a8.292,8.292,0,0,0,6.667,0v1.406l-1.6,5.126H190.57l-1.6-5.127Zm6.469,7.639L197,42.947l1.75.712-.5,5.969-2.8-1.6.027-.074Zm.29-20.547a20.79,20.79,0,0,0-6.85,0l-2.285.381A1.7,1.7,0,0,1,184.624,26h15.359a1.7,1.7,0,0,1-1.969,1.774Zm-.925-3.059h-5V22.667h5Zm7.5,5.833a1.67,1.67,0,0,1-1.667,1.667V28.51l.01-.01A1.668,1.668,0,0,1,202.3,30.166Zm-17.5-8.333a4.167,4.167,0,0,1,4.167-4.167h6.667a4.167,4.167,0,0,1,4.167,4.167v2.5h-3.333v-2.5a.833.833,0,0,0-.833-.833h-6.667a.833.833,0,0,0-.833.833v2.5H184.8Zm-2.01,9.51a1.665,1.665,0,0,1,1.169-2.844l.008.009v3.325a1.678,1.678,0,0,1-1.177-.49Zm2.844,1.323V29.4a3.391,3.391,0,0,0,1.23.02l.509-.085a1.25,1.25,0,1,0,2.158-.356,19.117,19.117,0,0,1,5.538,0,1.251,1.251,0,1,0,2.158.356l.509.085a4.276,4.276,0,0,0,1.23-.02v3.269a6.667,6.667,0,1,1-13.333,0ZM187.629,43l1.539,4.934-.031.011.028.078-2.805,1.6-.482-5.785Zm-7.034,2.13,3.653-.778.56,6.716a.833.833,0,0,0,.442.668,1.589,1.589,0,0,0,.8-.014l3.686-2.106,1.734,4.86v1.9l-4.8-.369L183.138,54.5V51h-1.667v2.784l-.505-.216a.833.833,0,0,0-.328-.067H177.3V49.208A4.2,4.2,0,0,1,180.595,45.131Zm1.623,19.2H179.8a2.5,2.5,0,0,1-2.5-2.5V61h2.988l1.422,1.423a.833.833,0,0,0,.589.244h4.08l1.868.393Zm25.087-2.5a2.5,2.5,0,0,1-2.5,2.5h-2.413l-15.748-3.315c-.056-.012-3.993-.018-3.993-.018l-1.422-1.423a.833.833,0,0,0-.589-.244H177.3V55.166h3.162s5.849,2.49,5.941,2.5l20.9,1.607Zm0-4.233-7.493-.576,4.332-1.857H207.3Zm0-4.1h-3.333a7.012,7.012,0,0,0-.833.285V51h-1.667v2.5H194.8v1.667h5.11l-1.978.846-4.8.371V54.477l1.734-4.86,3.686,2.106a.833.833,0,0,0,1.244-.654l.583-7,3.341.476a4.2,4.2,0,0,1,3.578,4.125Z" transform="translate(-3849.968 -3996)" fill="#7a797e"/>
    </g>
    <rect id="Rectangle_2546" data-name="Rectangle 2546" width="9" height="4" transform="translate(1171 361)" fill="#ffd400"/>
  </g>
</svg>
