<svg xmlns="http://www.w3.org/2000/svg" width="11.267" height="20.259" viewBox="0 0 11.267 20.259">
  <g id="shampoo" transform="translate(-139.393)">
    <g id="Group_15428" data-name="Group 15428" transform="translate(139.393)">
      <g id="Group_15427" data-name="Group 15427" transform="translate(0)">
        <path id="Path_18465" data-name="Path 18465" d="M147.8,4.36V0h-5.552V4.36a4.029,4.029,0,0,0-2.858,3.849V20.259H150.66V8.21A4.029,4.029,0,0,0,147.8,4.36Zm-2.776,11.567a2.746,2.746,0,1,1,2.746-2.746A2.749,2.749,0,0,1,145.027,15.927Z" transform="translate(-139.393)" fill="#939699"/>
      </g>
    </g>
    <g id="Group_15430" data-name="Group 15430" transform="translate(143.73 11.885)">
      <g id="Group_15429" data-name="Group 15429">
        <path id="Path_18466" data-name="Path 18466" d="M230.464,246a1.3,1.3,0,1,0,1.3,1.3A1.3,1.3,0,0,0,230.464,246Z" transform="translate(-229.168 -246)" fill="#939699"/>
      </g>
    </g>
  </g>
</svg>
