<svg id="_Icons_2_Picture" data-name="_Icons / 2 Picture" xmlns="http://www.w3.org/2000/svg" width="48" height="48" viewBox="0 0 48 48">
  <path id="_2_Picture" data-name="2 Picture" d="M30.714,25.715H3.572A3.576,3.576,0,0,1,0,22.143V3.572A3.576,3.576,0,0,1,3.572,0H30.714a3.571,3.571,0,0,1,3.572,3.572V22.143a3.571,3.571,0,0,1-3.572,3.572ZM14.286,10.534a1.422,1.422,0,0,0-.978.388L4.735,18.957a1.429,1.429,0,0,0,.98,2.472H28.693a1.429,1.429,0,0,0,1.015-2.407l-2.987-2.985a1.428,1.428,0,0,0-2.013,0l-.978.978a1.428,1.428,0,0,1-1.986,0l-6.478-6.093A1.426,1.426,0,0,0,14.286,10.534ZM27.143,4.286A2.857,2.857,0,1,0,30,7.143,2.861,2.861,0,0,0,27.143,4.286Z" transform="translate(6.857 11.143)" fill="#dfe5e6"/>
</svg>
